G04*
G04 #@! TF.GenerationSoftware,Altium Limited,Altium Designer,23.1.1 (15)*
G04*
G04 Layer_Color=16711935*
%FSLAX25Y25*%
%MOIN*%
G70*
G04*
G04 #@! TF.SameCoordinates,C0A30D0B-07C8-471D-B3AC-2C571FC99935*
G04*
G04*
G04 #@! TF.FilePolarity,Positive*
G04*
G01*
G75*
%ADD82C,0.00039*%
D82*
X27701Y-117881D02*
X31497Y-118110D01*
X23960Y-117195D02*
X27701Y-117881D01*
X20329Y-116064D02*
X23960Y-117195D01*
X16860Y-114503D02*
X20329Y-116064D01*
X13606Y-112535D02*
X16860Y-114503D01*
X10612Y-110189D02*
X13606Y-112535D01*
X7922Y-107500D02*
X10612Y-110189D01*
X5577Y-104506D02*
X7922Y-107500D01*
X3609Y-101251D02*
X5577Y-104506D01*
X2048Y-97783D02*
X3609Y-101251D01*
X917Y-94152D02*
X2048Y-97783D01*
X231Y-90411D02*
X917Y-94152D01*
X1Y-86614D02*
X231Y-90411D01*
X1Y-0D02*
X1Y-86614D01*
X1Y-0D02*
X188978D01*
X192774Y-230D01*
X196515Y-915D01*
X200146Y-2047D01*
X203615Y-3608D01*
X206870Y-5575D01*
X209863Y-7921D01*
X212553Y-10610D01*
X214898Y-13604D01*
X216866Y-16859D01*
X218427Y-20327D01*
X219559Y-23959D01*
X220244Y-27700D01*
X220474Y-31496D01*
Y-62992D02*
Y-31496D01*
X220375Y-63868D02*
X220474Y-62992D01*
X220084Y-64700D02*
X220375Y-63868D01*
X219615Y-65447D02*
X220084Y-64700D01*
X218991Y-66070D02*
X219615Y-65447D01*
X218245Y-66539D02*
X218991Y-66070D01*
X217413Y-66830D02*
X218245Y-66539D01*
X216537Y-66929D02*
X217413Y-66830D01*
X188978Y-66929D02*
X216537D01*
X188978Y-114173D02*
Y-66929D01*
X188879Y-115049D02*
X188978Y-114173D01*
X188588Y-115882D02*
X188879Y-115049D01*
X188119Y-116628D02*
X188588Y-115882D01*
X187495Y-117251D02*
X188119Y-116628D01*
X186749Y-117720D02*
X187495Y-117251D01*
X185917Y-118012D02*
X186749Y-117720D01*
X185041Y-118110D02*
X185917Y-118012D01*
X31497Y-118110D02*
X185041D01*
X27701Y-117881D02*
X31497Y-118110D01*
X23960Y-117195D02*
X27701Y-117881D01*
X20329Y-116064D02*
X23960Y-117195D01*
X16860Y-114503D02*
X20329Y-116064D01*
X13606Y-112535D02*
X16860Y-114503D01*
X10612Y-110189D02*
X13606Y-112535D01*
X7922Y-107500D02*
X10612Y-110189D01*
X5577Y-104506D02*
X7922Y-107500D01*
X3609Y-101251D02*
X5577Y-104506D01*
X2048Y-97783D02*
X3609Y-101251D01*
X917Y-94152D02*
X2048Y-97783D01*
X231Y-90411D02*
X917Y-94152D01*
X1Y-86614D02*
X231Y-90411D01*
X1Y-0D02*
X1Y-86614D01*
X1Y-0D02*
X188978D01*
X192774Y-230D01*
X196515Y-915D01*
X200146Y-2047D01*
X203615Y-3608D01*
X206870Y-5575D01*
X209863Y-7921D01*
X212553Y-10610D01*
X214898Y-13604D01*
X216866Y-16859D01*
X218427Y-20327D01*
X219559Y-23959D01*
X220244Y-27700D01*
X220474Y-31496D01*
Y-62992D02*
Y-31496D01*
X220375Y-63868D02*
X220474Y-62992D01*
X220084Y-64700D02*
X220375Y-63868D01*
X219615Y-65447D02*
X220084Y-64700D01*
X218991Y-66070D02*
X219615Y-65447D01*
X218245Y-66539D02*
X218991Y-66070D01*
X217413Y-66830D02*
X218245Y-66539D01*
X216537Y-66929D02*
X217413Y-66830D01*
X188978Y-66929D02*
X216537D01*
X188978Y-114173D02*
Y-66929D01*
X188879Y-115049D02*
X188978Y-114173D01*
X188588Y-115882D02*
X188879Y-115049D01*
X188119Y-116628D02*
X188588Y-115882D01*
X187495Y-117251D02*
X188119Y-116628D01*
X186749Y-117720D02*
X187495Y-117251D01*
X185917Y-118012D02*
X186749Y-117720D01*
X185041Y-118110D02*
X185917Y-118012D01*
X31497Y-118110D02*
X185041D01*
X27701Y-117881D02*
X31497Y-118110D01*
X23960Y-117195D02*
X27701Y-117881D01*
X20329Y-116064D02*
X23960Y-117195D01*
X16860Y-114503D02*
X20329Y-116064D01*
X13606Y-112535D02*
X16860Y-114503D01*
X10612Y-110189D02*
X13606Y-112535D01*
X7922Y-107500D02*
X10612Y-110189D01*
X5577Y-104506D02*
X7922Y-107500D01*
X3609Y-101251D02*
X5577Y-104506D01*
X2048Y-97783D02*
X3609Y-101251D01*
X917Y-94152D02*
X2048Y-97783D01*
X231Y-90411D02*
X917Y-94152D01*
X1Y-86614D02*
X231Y-90411D01*
X1Y-0D02*
X1Y-86614D01*
X1Y-0D02*
X188978D01*
X192774Y-230D01*
X196515Y-915D01*
X200146Y-2047D01*
X203615Y-3608D01*
X206870Y-5575D01*
X209863Y-7921D01*
X212553Y-10610D01*
X214898Y-13604D01*
X216866Y-16859D01*
X218427Y-20327D01*
X219559Y-23959D01*
X220244Y-27700D01*
X220474Y-31496D01*
Y-62992D02*
Y-31496D01*
X220375Y-63868D02*
X220474Y-62992D01*
X220084Y-64700D02*
X220375Y-63868D01*
X219615Y-65447D02*
X220084Y-64700D01*
X218991Y-66070D02*
X219615Y-65447D01*
X218245Y-66539D02*
X218991Y-66070D01*
X217413Y-66830D02*
X218245Y-66539D01*
X216537Y-66929D02*
X217413Y-66830D01*
X188978Y-66929D02*
X216537D01*
X188978Y-114173D02*
Y-66929D01*
X188879Y-115049D02*
X188978Y-114173D01*
X188588Y-115882D02*
X188879Y-115049D01*
X188119Y-116628D02*
X188588Y-115882D01*
X187495Y-117251D02*
X188119Y-116628D01*
X186749Y-117720D02*
X187495Y-117251D01*
X185917Y-118012D02*
X186749Y-117720D01*
X185041Y-118110D02*
X185917Y-118012D01*
X31497Y-118110D02*
X185041D01*
M02*
