M48
;Layer_Color=9474304
;FILE_FORMAT=2:5
INCH,LZ
;TYPE=PLATED
T1F00S00C0.00787
T2F00S00C0.01181
T3F00S00C0.02000
T5F00S00C0.03543
T6F00S00C0.12500
;TYPE=NON_PLATED
T7F00S00C0.02756
%
T01
X0073686Y-0076851
X0070624Y-0073789
X0076748
X0073686Y-0070727
X0067562
X0064499Y-0067665
X0061437Y-0064602
X0067562Y-0064602
X0064499Y-006154
X0070624
Y-0067665
X0076748
X0073686Y-0064602
X0076748Y-006154
X0079811Y-0058478
X0079811Y-0064602
X0082873Y-0067665
X0085935Y-0064602
X0082873Y-006154
X0079811Y-0070727
X0073686Y-0058478
Y-0052353
X0070624Y-0055416
X0076748
X0067562Y-0058478
T02
X0018898Y-0058268
X0029331Y-0058957
X0032874
Y-0055315
X0029331
X004439Y-0067716
X0051083Y-0069291
X0055118Y-0057874
X0056398Y-0085925
X0051821Y-0023179
X0067618Y-0043898
X0075492Y-0043309
X0082284Y-0046358
X0063163Y-0050075
X0064567Y-0093209
X0082087Y-0096161
X0097539Y-0097244
X0100689Y-0070866
X0104921Y-0070276
X0105512Y-0065354
X010561Y-0057834
X0109744Y-0057972
X0113976Y-0057874
X0117717Y-0064961
X0121653Y-0064724
T03
X013121Y-010889
X0129242Y-0102
X013121Y-009511
X01381Y-0093142
X014499Y-009511
X0146958Y-0102
X014499Y-010889
X01381Y-0111843
X007779Y-002349
X0079758Y-00166
X007779Y-000971
X00709Y-0007742
X006401Y-000971
X0062042Y-00166
X006401Y-002349
X00709Y-0026443
T05
X0031024Y-0110236
X0041024
X0051024
X0061024
X0071024
X0179134Y-0112205
Y-0102205
Y-0092205
Y-0082205
Y-0072205
X0192362Y-0058661
X0202362
X0212362
T06
X01381Y-0102
X00709Y-00166
T07
X0022819Y-00345
Y-0011744
M30
