G04*
G04 #@! TF.GenerationSoftware,Altium Limited,Altium Designer,23.1.1 (15)*
G04*
G04 Layer_Color=32896*
%FSLAX25Y25*%
%MOIN*%
G70*
G04*
G04 #@! TF.SameCoordinates,C0A30D0B-07C8-471D-B3AC-2C571FC99935*
G04*
G04*
G04 #@! TF.FilePolarity,Positive*
G04*
G01*
G75*
%ADD15C,0.01000*%
G36*
X165354Y-43307D02*
X99895D01*
Y-7500D01*
X165354D01*
Y-43307D01*
D02*
G37*
%LPC*%
G36*
X141841Y-15374D02*
X138774D01*
Y-18629D01*
X141841D01*
Y-15374D01*
D02*
G37*
G36*
X157480Y-20444D02*
X149583D01*
D01*
X150800D01*
X150628Y-20461D01*
X150423Y-20479D01*
X150183Y-20513D01*
X149909Y-20547D01*
X149583Y-20598D01*
Y-20547D01*
Y-20598D01*
Y-23596D01*
X149618D01*
X149669Y-23579D01*
X149738D01*
X149909Y-23545D01*
X150131Y-23511D01*
X150423Y-23494D01*
X150731Y-23459D01*
X151057Y-23442D01*
X151485D01*
X151588Y-23459D01*
X151707Y-23476D01*
X151862Y-23494D01*
X152033Y-23545D01*
X152239Y-23596D01*
X152444Y-23665D01*
X152667Y-23767D01*
X152924Y-23888D01*
X153164Y-24024D01*
X153420Y-24213D01*
X153677Y-24419D01*
X153917Y-24658D01*
X154174Y-24932D01*
X154414Y-25258D01*
Y-35433D01*
X157480D01*
Y-20444D01*
D02*
G37*
G36*
X120000Y-15374D02*
X107769D01*
X116934D01*
Y-26440D01*
X111897Y-20770D01*
X108317D01*
X113662Y-26337D01*
X107769Y-35433D01*
X111195D01*
X115683Y-28273D01*
X116934Y-29660D01*
Y-35433D01*
X120000D01*
Y-15374D01*
D02*
G37*
G36*
X148196Y-15374D02*
X145130D01*
Y-35433D01*
X148196D01*
Y-15374D01*
D02*
G37*
G36*
X141841Y-20770D02*
D01*
X138774D01*
Y-35433D01*
X141841D01*
Y-20770D01*
D02*
G37*
G36*
X135485Y-20444D02*
X123409Y-20444D01*
D01*
X128359D01*
X128256Y-20461D01*
X128154D01*
X128017Y-20479D01*
X127863Y-20496D01*
X127691Y-20530D01*
X127297Y-20616D01*
X126869Y-20735D01*
X126424Y-20907D01*
X125944Y-21129D01*
X125704Y-21267D01*
X125464Y-21421D01*
X125242Y-21592D01*
X125019Y-21780D01*
X124796Y-21986D01*
X124591Y-22226D01*
X124385Y-22483D01*
X124197Y-22757D01*
X124025Y-23065D01*
X123871Y-23391D01*
X123734Y-23733D01*
X123631Y-24110D01*
X123529Y-24521D01*
X123460Y-24967D01*
X123426Y-25429D01*
X123409Y-25926D01*
Y-25875D01*
Y-35433D01*
X126492D01*
Y-26029D01*
Y-26012D01*
Y-25960D01*
Y-25875D01*
Y-25772D01*
X126509Y-25635D01*
X126526Y-25480D01*
X126561Y-25138D01*
X126629Y-24761D01*
X126715Y-24367D01*
X126852Y-24024D01*
X126937Y-23870D01*
X127040Y-23733D01*
X127057Y-23699D01*
X127143Y-23630D01*
X127280Y-23528D01*
X127469Y-23391D01*
X127726Y-23271D01*
X128051Y-23168D01*
X128428Y-23099D01*
X128633Y-23065D01*
X128959Y-23065D01*
X129044Y-23082D01*
X129182Y-23099D01*
X129336Y-23134D01*
X129524Y-23168D01*
X129747Y-23236D01*
X129970Y-23322D01*
X130244Y-23442D01*
X130518Y-23579D01*
X130809Y-23733D01*
X131117Y-23939D01*
X131426Y-24179D01*
X131751Y-24453D01*
X132094Y-24778D01*
X132419Y-25138D01*
Y-35433D01*
X135485D01*
Y-20444D01*
D02*
G37*
%LPD*%
G36*
X157480Y-20770D02*
X154414D01*
Y-22740D01*
X154397Y-22705D01*
X154363Y-22637D01*
X154294Y-22534D01*
X154191Y-22380D01*
X154071Y-22209D01*
X153934Y-22020D01*
X153746Y-21798D01*
X153558Y-21592D01*
X153318Y-21369D01*
X153078Y-21164D01*
X152787Y-20975D01*
X152496Y-20804D01*
X152170Y-20650D01*
X151810Y-20547D01*
X151433Y-20461D01*
X151022Y-20444D01*
X157480D01*
Y-20770D01*
D02*
G37*
G36*
X135485D02*
X132419D01*
Y-22568D01*
X132402Y-22551D01*
X132351Y-22483D01*
X132265Y-22380D01*
X132145Y-22243D01*
X132008Y-22072D01*
X131820Y-21900D01*
X131614Y-21712D01*
X131374Y-21506D01*
X131100Y-21301D01*
X130809Y-21112D01*
X130483Y-20941D01*
X130141Y-20770D01*
X129764Y-20633D01*
X129353Y-20530D01*
X128925Y-20461D01*
X128479Y-20444D01*
X135485Y-20444D01*
Y-20770D01*
D02*
G37*
D15*
X19348Y-75927D02*
X18786Y-75646D01*
X18505Y-74803D01*
Y-73959D01*
X18786Y-73116D01*
X19348Y-72835D01*
X19911Y-73116D01*
X20192Y-73678D01*
X20473Y-75084D01*
X20754Y-75646D01*
X21316Y-75927D01*
X21598D01*
X22160Y-75646D01*
X22441Y-74803D01*
Y-73959D01*
X22160Y-73116D01*
X21598Y-72835D01*
X20192Y-77164D02*
Y-80538D01*
X19629D01*
X19067Y-80257D01*
X18786Y-79976D01*
X18505Y-79414D01*
Y-78570D01*
X18786Y-78008D01*
X19348Y-77446D01*
X20192Y-77164D01*
X20754D01*
X21598Y-77446D01*
X22160Y-78008D01*
X22441Y-78570D01*
Y-79414D01*
X22160Y-79976D01*
X21598Y-80538D01*
X16537Y-81804D02*
X22441D01*
X16537Y-85290D02*
Y-84728D01*
X16818Y-84165D01*
X17661Y-83884D01*
X22441D01*
X18505Y-83041D02*
Y-85009D01*
Y-90772D02*
X24409D01*
X19348D02*
X18786Y-91335D01*
X18505Y-91897D01*
Y-92740D01*
X18786Y-93303D01*
X19348Y-93865D01*
X20192Y-94146D01*
X20754D01*
X21598Y-93865D01*
X22160Y-93303D01*
X22441Y-92740D01*
Y-91897D01*
X22160Y-91335D01*
X21598Y-90772D01*
X18505Y-95411D02*
X22441D01*
X20192D02*
X19348Y-95692D01*
X18786Y-96255D01*
X18505Y-96817D01*
Y-97661D01*
Y-99601D02*
X18786Y-99038D01*
X19348Y-98476D01*
X20192Y-98195D01*
X20754D01*
X21598Y-98476D01*
X22160Y-99038D01*
X22441Y-99601D01*
Y-100444D01*
X22160Y-101006D01*
X21598Y-101569D01*
X20754Y-101850D01*
X20192D01*
X19348Y-101569D01*
X18786Y-101006D01*
X18505Y-100444D01*
Y-99601D01*
Y-106517D02*
X23003D01*
X23847Y-106236D01*
X24128Y-105955D01*
X24409Y-105392D01*
Y-104549D01*
X24128Y-103987D01*
X19348Y-106517D02*
X18786Y-105955D01*
X18505Y-105392D01*
Y-104549D01*
X18786Y-103987D01*
X19348Y-103424D01*
X20192Y-103143D01*
X20754D01*
X21598Y-103424D01*
X22160Y-103987D01*
X22441Y-104549D01*
Y-105392D01*
X22160Y-105955D01*
X21598Y-106517D01*
X21879Y-108373D02*
X22160Y-108091D01*
X22441Y-108373D01*
X22160Y-108654D01*
X21879Y-108373D01*
X40214Y-84195D02*
X39652Y-83914D01*
X39371Y-83070D01*
Y-82227D01*
X39652Y-81384D01*
X40214Y-81102D01*
X40777Y-81384D01*
X41058Y-81946D01*
X41339Y-83352D01*
X41620Y-83914D01*
X42182Y-84195D01*
X42464D01*
X43026Y-83914D01*
X43307Y-83070D01*
Y-82227D01*
X43026Y-81384D01*
X42464Y-81102D01*
X39371Y-85432D02*
X43307Y-86557D01*
X39371Y-87681D02*
X43307Y-86557D01*
X39371Y-87681D02*
X43307Y-88806D01*
X39371Y-89931D02*
X43307Y-88806D01*
X37403Y-94682D02*
X43307D01*
X40214D02*
X39652Y-94120D01*
X39371Y-93558D01*
Y-92714D01*
X39652Y-92152D01*
X40214Y-91589D01*
X41058Y-91308D01*
X41620D01*
X42464Y-91589D01*
X43026Y-92152D01*
X43307Y-92714D01*
Y-93558D01*
X43026Y-94120D01*
X42464Y-94682D01*
X37403Y-96819D02*
X37684Y-97100D01*
X37403Y-97381D01*
X37122Y-97100D01*
X37403Y-96819D01*
X39371Y-97100D02*
X43307D01*
X39371Y-99827D02*
X39652Y-99265D01*
X40214Y-98703D01*
X41058Y-98422D01*
X41620D01*
X42464Y-98703D01*
X43026Y-99265D01*
X43307Y-99827D01*
Y-100671D01*
X43026Y-101233D01*
X42464Y-101795D01*
X41620Y-102076D01*
X41058D01*
X40214Y-101795D01*
X39652Y-101233D01*
X39371Y-100671D01*
Y-99827D01*
X49663Y-84589D02*
X49101Y-84308D01*
X48820Y-83464D01*
Y-82621D01*
X49101Y-81777D01*
X49663Y-81496D01*
X50226Y-81777D01*
X50507Y-82340D01*
X50788Y-83745D01*
X51069Y-84308D01*
X51631Y-84589D01*
X51912D01*
X52475Y-84308D01*
X52756Y-83464D01*
Y-82621D01*
X52475Y-81777D01*
X51912Y-81496D01*
X48820Y-85826D02*
X52756Y-86950D01*
X48820Y-88075D02*
X52756Y-86950D01*
X48820Y-88075D02*
X52756Y-89200D01*
X48820Y-90324D02*
X52756Y-89200D01*
X49663Y-95076D02*
X49101Y-94513D01*
X48820Y-93951D01*
Y-93108D01*
X49101Y-92545D01*
X49663Y-91983D01*
X50507Y-91702D01*
X51069D01*
X51912Y-91983D01*
X52475Y-92545D01*
X52756Y-93108D01*
Y-93951D01*
X52475Y-94513D01*
X51912Y-95076D01*
X46852Y-96341D02*
X52756D01*
X46852Y-97578D02*
X52756D01*
X48820Y-100390D02*
X51631Y-97578D01*
X50507Y-98703D02*
X52756Y-100671D01*
X28348Y-82058D02*
Y-85151D01*
X30597Y-83464D01*
Y-84308D01*
X30878Y-84870D01*
X31159Y-85151D01*
X32003Y-85432D01*
X32565D01*
X33408Y-85151D01*
X33971Y-84589D01*
X34252Y-83745D01*
Y-82902D01*
X33971Y-82058D01*
X33690Y-81777D01*
X33127Y-81496D01*
X33690Y-87035D02*
X33971Y-86754D01*
X34252Y-87035D01*
X33971Y-87316D01*
X33690Y-87035D01*
X28348Y-89172D02*
Y-92264D01*
X30597Y-90577D01*
Y-91421D01*
X30878Y-91983D01*
X31159Y-92264D01*
X32003Y-92545D01*
X32565D01*
X33408Y-92264D01*
X33971Y-91702D01*
X34252Y-90859D01*
Y-90015D01*
X33971Y-89172D01*
X33690Y-88890D01*
X33127Y-88609D01*
X30316Y-93867D02*
X34252Y-95554D01*
X30316Y-97241D02*
X34252Y-95554D01*
X58662Y-81496D02*
X62598D01*
X59787D02*
X58943Y-82340D01*
X58662Y-82902D01*
Y-83745D01*
X58943Y-84308D01*
X59787Y-84589D01*
X62598D01*
X63442Y-86135D02*
X56694Y-90071D01*
X59506Y-93839D02*
X58943Y-93276D01*
X58662Y-92714D01*
Y-91871D01*
X58943Y-91308D01*
X59506Y-90746D01*
X60349Y-90465D01*
X60912D01*
X61755Y-90746D01*
X62317Y-91308D01*
X62598Y-91871D01*
Y-92714D01*
X62317Y-93276D01*
X61755Y-93839D01*
X68898Y-84476D02*
X73397D01*
X74240Y-84195D01*
X74522Y-83914D01*
X74803Y-83352D01*
Y-82508D01*
X74522Y-81946D01*
X69742Y-84476D02*
X69180Y-83914D01*
X68898Y-83352D01*
Y-82508D01*
X69180Y-81946D01*
X69742Y-81384D01*
X70585Y-81102D01*
X71148D01*
X71991Y-81384D01*
X72553Y-81946D01*
X72835Y-82508D01*
Y-83352D01*
X72553Y-83914D01*
X71991Y-84476D01*
X68898Y-86051D02*
X72835D01*
X70023D02*
X69180Y-86894D01*
X68898Y-87456D01*
Y-88300D01*
X69180Y-88862D01*
X70023Y-89143D01*
X72835D01*
X66930Y-94064D02*
X72835D01*
X69742D02*
X69180Y-93501D01*
X68898Y-92939D01*
Y-92096D01*
X69180Y-91533D01*
X69742Y-90971D01*
X70585Y-90690D01*
X71148D01*
X71991Y-90971D01*
X72553Y-91533D01*
X72835Y-92096D01*
Y-92939D01*
X72553Y-93501D01*
X71991Y-94064D01*
X178741Y-38976D02*
X182959D01*
X183802Y-39257D01*
X184364Y-39820D01*
X184646Y-40663D01*
Y-41226D01*
X184364Y-42069D01*
X183802Y-42631D01*
X182959Y-42913D01*
X178741D01*
X184646Y-49042D02*
X178741Y-46793D01*
X184646Y-44543D01*
X182678Y-45387D02*
Y-48198D01*
X178741Y-50419D02*
X184646D01*
X178741D02*
Y-52950D01*
X179023Y-53793D01*
X179304Y-54074D01*
X179866Y-54356D01*
X180428D01*
X180991Y-54074D01*
X181272Y-53793D01*
X181553Y-52950D01*
Y-50419D01*
Y-52387D02*
X184646Y-54356D01*
X178741Y-57645D02*
X184646D01*
X178741Y-55677D02*
Y-59613D01*
X210237Y-38976D02*
X214173D01*
X211924D02*
X211081Y-39257D01*
X210518Y-39820D01*
X210237Y-40382D01*
Y-41226D01*
Y-41760D02*
X214173Y-44853D01*
X210237D02*
X214173Y-41760D01*
X199214Y-39426D02*
X203994D01*
X204837Y-39707D01*
X205118Y-40270D01*
Y-40832D01*
X201182Y-38583D02*
Y-40551D01*
Y-41675D02*
X205118Y-44768D01*
X201182D02*
X205118Y-41675D01*
X189765Y-41563D02*
X194263D01*
X195107Y-41282D01*
X195388Y-41001D01*
X195669Y-40438D01*
Y-39595D01*
X195388Y-39032D01*
X190608Y-41563D02*
X190046Y-41001D01*
X189765Y-40438D01*
Y-39595D01*
X190046Y-39032D01*
X190608Y-38470D01*
X191452Y-38189D01*
X192014D01*
X192857Y-38470D01*
X193420Y-39032D01*
X193701Y-39595D01*
Y-40438D01*
X193420Y-41001D01*
X192857Y-41563D01*
X189765Y-43137D02*
X193701D01*
X190889D02*
X190046Y-43981D01*
X189765Y-44543D01*
Y-45386D01*
X190046Y-45949D01*
X190889Y-46230D01*
X193701D01*
X187797Y-51150D02*
X193701D01*
X190608D02*
X190046Y-50588D01*
X189765Y-50026D01*
Y-49182D01*
X190046Y-48620D01*
X190608Y-48057D01*
X191452Y-47776D01*
X192014D01*
X192857Y-48057D01*
X193420Y-48620D01*
X193701Y-49182D01*
Y-50026D01*
X193420Y-50588D01*
X192857Y-51150D01*
M02*
