G04*
G04 #@! TF.GenerationSoftware,Altium Limited,Altium Designer,23.1.1 (15)*
G04*
G04 Layer_Color=16711935*
%FSLAX25Y25*%
%MOIN*%
G70*
G04*
G04 #@! TF.SameCoordinates,C0A30D0B-07C8-471D-B3AC-2C571FC99935*
G04*
G04*
G04 #@! TF.FilePolarity,Negative*
G04*
G01*
G75*
%ADD56C,0.25800*%
%ADD57C,0.06706*%
%ADD58R,0.06706X0.06706*%
%ADD59R,0.06706X0.06706*%
%ADD60C,0.03556*%
%ADD61O,0.09068X0.04934*%
%ADD62C,0.04300*%
%ADD63C,0.03162*%
%ADD64C,0.02769*%
D56*
X70900Y-16600D02*
D03*
X138100Y-102000D02*
D03*
D57*
X179134Y-92205D02*
D03*
Y-72205D02*
D03*
Y-82205D02*
D03*
Y-102205D02*
D03*
X202362Y-58661D02*
D03*
X212362D02*
D03*
X31024Y-110236D02*
D03*
X41024D02*
D03*
X51024D02*
D03*
X61024D02*
D03*
D58*
X179134Y-112205D02*
D03*
D59*
X192362Y-58661D02*
D03*
X71024Y-110236D02*
D03*
D60*
X22819Y-34500D02*
D03*
Y-11744D02*
D03*
D61*
X8449Y-40130D02*
D03*
Y-6114D02*
D03*
X24905Y-40130D02*
D03*
Y-6114D02*
D03*
D62*
X62042Y-16600D02*
D03*
X79758D02*
D03*
X70900Y-7742D02*
D03*
Y-26443D02*
D03*
X77790Y-9710D02*
D03*
X64010D02*
D03*
Y-23490D02*
D03*
X77790Y-23490D02*
D03*
X129242Y-102000D02*
D03*
X146958D02*
D03*
X138100Y-93142D02*
D03*
Y-111843D02*
D03*
X144990Y-95110D02*
D03*
X131210D02*
D03*
Y-108890D02*
D03*
X144990Y-108890D02*
D03*
D63*
X32874Y-55315D02*
D03*
X29331D02*
D03*
X32874Y-58957D02*
D03*
X29331D02*
D03*
D64*
X73686Y-76851D02*
D03*
X70624Y-73789D02*
D03*
X67562Y-70727D02*
D03*
X64499Y-67665D02*
D03*
X61437Y-64602D02*
D03*
X76748Y-73789D02*
D03*
X73686Y-70727D02*
D03*
X70624Y-67665D02*
D03*
X67562Y-64602D02*
D03*
X64499Y-61540D02*
D03*
X79811Y-70727D02*
D03*
X76748Y-67665D02*
D03*
X73686Y-64602D02*
D03*
X70624Y-61540D02*
D03*
X67562Y-58478D02*
D03*
X82873Y-67665D02*
D03*
X79811Y-64602D02*
D03*
X76748Y-61540D02*
D03*
X73686Y-58478D02*
D03*
X70624Y-55416D02*
D03*
X85935Y-64602D02*
D03*
X82873Y-61540D02*
D03*
X79811Y-58478D02*
D03*
X76748Y-55416D02*
D03*
X73686Y-52353D02*
D03*
M02*
