G04*
G04 #@! TF.GenerationSoftware,Altium Limited,Altium Designer,23.1.1 (15)*
G04*
G04 Layer_Physical_Order=1*
G04 Layer_Color=255*
%FSLAX25Y25*%
%MOIN*%
G70*
G04*
G04 #@! TF.SameCoordinates,C0A30D0B-07C8-471D-B3AC-2C571FC99935*
G04*
G04*
G04 #@! TF.FilePolarity,Positive*
G04*
G01*
G75*
%ADD11C,0.00787*%
%ADD14C,0.00200*%
%ADD15C,0.01000*%
%ADD16R,0.02165X0.02362*%
%ADD17R,0.02165X0.02362*%
%ADD18R,0.01968X0.01968*%
%ADD19R,0.05709X0.02362*%
%ADD20R,0.05709X0.01181*%
%ADD21R,0.02362X0.02165*%
%ADD22R,0.02362X0.02165*%
G04:AMPARAMS|DCode=23|XSize=23.62mil|YSize=21.65mil|CornerRadius=0mil|HoleSize=0mil|Usage=FLASHONLY|Rotation=45.000|XOffset=0mil|YOffset=0mil|HoleType=Round|Shape=Rectangle|*
%AMROTATEDRECTD23*
4,1,4,-0.00070,-0.01601,-0.01601,-0.00070,0.00070,0.01601,0.01601,0.00070,-0.00070,-0.01601,0.0*
%
%ADD23ROTATEDRECTD23*%

G04:AMPARAMS|DCode=24|XSize=21.65mil|YSize=23.62mil|CornerRadius=0mil|HoleSize=0mil|Usage=FLASHONLY|Rotation=315.000|XOffset=0mil|YOffset=0mil|HoleType=Round|Shape=Rectangle|*
%AMROTATEDRECTD24*
4,1,4,-0.01601,-0.00070,0.00070,0.01601,0.01601,0.00070,-0.00070,-0.01601,-0.01601,-0.00070,0.0*
%
%ADD24ROTATEDRECTD24*%

G04:AMPARAMS|DCode=25|XSize=9.84mil|YSize=39.37mil|CornerRadius=0mil|HoleSize=0mil|Usage=FLASHONLY|Rotation=225.000|XOffset=0mil|YOffset=0mil|HoleType=Round|Shape=Round|*
%AMOVALD25*
21,1,0.02953,0.00984,0.00000,0.00000,315.0*
1,1,0.00984,-0.01044,0.01044*
1,1,0.00984,0.01044,-0.01044*
%
%ADD25OVALD25*%

G04:AMPARAMS|DCode=26|XSize=9.84mil|YSize=39.37mil|CornerRadius=0mil|HoleSize=0mil|Usage=FLASHONLY|Rotation=135.000|XOffset=0mil|YOffset=0mil|HoleType=Round|Shape=Round|*
%AMOVALD26*
21,1,0.02953,0.00984,0.00000,0.00000,225.0*
1,1,0.00984,0.01044,0.01044*
1,1,0.00984,-0.01044,-0.01044*
%
%ADD26OVALD26*%

%ADD27P,0.31180X4X180.0*%
G04:AMPARAMS|DCode=28|XSize=47.64mil|YSize=23.23mil|CornerRadius=2.9mil|HoleSize=0mil|Usage=FLASHONLY|Rotation=180.000|XOffset=0mil|YOffset=0mil|HoleType=Round|Shape=RoundedRectangle|*
%AMROUNDEDRECTD28*
21,1,0.04764,0.01742,0,0,180.0*
21,1,0.04183,0.02323,0,0,180.0*
1,1,0.00581,-0.02092,0.00871*
1,1,0.00581,0.02092,0.00871*
1,1,0.00581,0.02092,-0.00871*
1,1,0.00581,-0.02092,-0.00871*
%
%ADD28ROUNDEDRECTD28*%
G04:AMPARAMS|DCode=29|XSize=21.65mil|YSize=23.62mil|CornerRadius=0mil|HoleSize=0mil|Usage=FLASHONLY|Rotation=225.000|XOffset=0mil|YOffset=0mil|HoleType=Round|Shape=Rectangle|*
%AMROTATEDRECTD29*
4,1,4,-0.00070,0.01601,0.01601,-0.00070,0.00070,-0.01601,-0.01601,0.00070,-0.00070,0.01601,0.0*
%
%ADD29ROTATEDRECTD29*%

G04:AMPARAMS|DCode=30|XSize=23.62mil|YSize=21.65mil|CornerRadius=0mil|HoleSize=0mil|Usage=FLASHONLY|Rotation=315.000|XOffset=0mil|YOffset=0mil|HoleType=Round|Shape=Rectangle|*
%AMROTATEDRECTD30*
4,1,4,-0.01601,0.00070,-0.00070,0.01601,0.01601,-0.00070,0.00070,-0.01601,-0.01601,0.00070,0.0*
%
%ADD30ROTATEDRECTD30*%

%ADD31P,0.02784X4X270.0*%
%ADD32P,0.04243X4X270.0*%
%ADD33R,0.07087X0.04528*%
G04:AMPARAMS|DCode=34|XSize=59.06mil|YSize=106.3mil|CornerRadius=0mil|HoleSize=0mil|Usage=FLASHONLY|Rotation=225.000|XOffset=0mil|YOffset=0mil|HoleType=Round|Shape=Rectangle|*
%AMROTATEDRECTD34*
4,1,4,-0.01670,0.05846,0.05846,-0.01670,0.01670,-0.05846,-0.05846,0.01670,-0.01670,0.05846,0.0*
%
%ADD34ROTATEDRECTD34*%

%ADD65R,0.06299X0.08268*%
%ADD66R,0.02362X0.01378*%
%ADD67C,0.01575*%
%ADD68C,0.01968*%
%ADD69C,0.02362*%
%ADD70C,0.01378*%
%ADD71C,0.00591*%
%ADD72C,0.01181*%
%ADD73C,0.25000*%
%ADD74C,0.05906*%
%ADD75R,0.05906X0.05906*%
%ADD76R,0.05906X0.05906*%
%ADD77C,0.02756*%
%ADD78O,0.08268X0.04134*%
%ADD79C,0.03500*%
%ADD80C,0.02362*%
%ADD81C,0.01968*%
G36*
X42193Y-5783D02*
Y-21555D01*
X41056D01*
X40904Y-21055D01*
X40994Y-20994D01*
X41189Y-20703D01*
X41257Y-20359D01*
Y-18617D01*
X41189Y-18273D01*
X40994Y-17982D01*
X40703Y-17787D01*
X40359Y-17719D01*
X36176D01*
X35833Y-17787D01*
X35541Y-17982D01*
X35346Y-18273D01*
X35278Y-18617D01*
Y-18967D01*
X34440D01*
X34249Y-18505D01*
X38006Y-14748D01*
X38247Y-14387D01*
X38332Y-13961D01*
X38766Y-13780D01*
X39521D01*
Y-11039D01*
X39931D01*
Y-9457D01*
X35568D01*
Y-11039D01*
X35978D01*
Y-13631D01*
X32520Y-17089D01*
X31953D01*
Y-12508D01*
X32362D01*
Y-10827D01*
X28508D01*
Y-9827D01*
X32362D01*
Y-8146D01*
X29845D01*
X29623Y-7697D01*
X29651Y-7661D01*
X29960Y-6915D01*
X30000Y-6614D01*
X24905D01*
Y-5614D01*
X30000D01*
X29960Y-5314D01*
X29651Y-4567D01*
X29620Y-4527D01*
X29841Y-4078D01*
X40488D01*
X42193Y-5783D01*
D02*
G37*
G36*
X54082Y-26053D02*
Y-31465D01*
X52342Y-33205D01*
X52124Y-33531D01*
X52048Y-33915D01*
Y-50927D01*
X52124Y-51311D01*
X52342Y-51637D01*
X53651Y-52946D01*
X48630Y-57966D01*
X38794Y-61457D01*
X38386Y-61168D01*
Y-59547D01*
X38019D01*
Y-58366D01*
X38386D01*
Y-55807D01*
X37179D01*
X37152Y-55789D01*
X36614Y-55682D01*
X36077Y-55789D01*
X36049Y-55807D01*
X35252D01*
Y-54626D01*
X35996D01*
X36122Y-54651D01*
X36614D01*
X36740Y-54626D01*
X38386D01*
Y-52067D01*
X37344D01*
X37327Y-51981D01*
X37045Y-51558D01*
X36237Y-50751D01*
X35814Y-50468D01*
X35315Y-50369D01*
X34381D01*
Y-49736D01*
X38287D01*
X38287Y-49736D01*
X38902Y-49613D01*
X39423Y-49265D01*
X44934Y-43753D01*
X44935Y-43753D01*
X45283Y-43233D01*
X45405Y-42618D01*
X45405Y-42618D01*
Y-29064D01*
X45475Y-28975D01*
X45905Y-28707D01*
X46058Y-28738D01*
X50241D01*
X50585Y-28669D01*
X50876Y-28475D01*
X51071Y-28183D01*
X51139Y-27840D01*
Y-27353D01*
X51713D01*
X52097Y-27277D01*
X52422Y-27059D01*
X53620Y-25861D01*
X54082Y-26053D01*
D02*
G37*
G36*
X76295Y-36937D02*
X76219Y-36987D01*
X69780Y-43426D01*
X69302Y-43281D01*
X69287Y-43206D01*
X68895Y-42620D01*
X68309Y-42229D01*
X67618Y-42091D01*
X67566Y-42102D01*
X67320Y-41641D01*
X67692Y-41269D01*
X67692Y-41269D01*
X67942Y-41019D01*
X68045Y-40915D01*
X70448Y-38513D01*
X69974Y-38039D01*
X71577Y-36437D01*
X76143D01*
X76295Y-36937D01*
D02*
G37*
G36*
X86614Y-32229D02*
X64307D01*
X63923Y-32305D01*
X63597Y-32523D01*
X57597Y-38523D01*
X57379Y-38849D01*
X57303Y-39233D01*
Y-43123D01*
X56304Y-44122D01*
X55842Y-43931D01*
Y-35071D01*
X57582Y-33331D01*
X57800Y-33005D01*
X57876Y-32621D01*
Y-23811D01*
X57800Y-23427D01*
X57582Y-23102D01*
X56074Y-21593D01*
X55749Y-21376D01*
X55365Y-21299D01*
X54422D01*
X52422Y-19299D01*
X52097Y-19082D01*
X51713Y-19005D01*
X51139D01*
Y-18617D01*
X51071Y-18273D01*
X50876Y-17982D01*
X50585Y-17787D01*
X50241Y-17719D01*
X46058D01*
X45905Y-17749D01*
X45475Y-17482D01*
X45405Y-17393D01*
Y-5118D01*
X45283Y-4504D01*
X44935Y-3983D01*
X44934Y-3983D01*
X42633Y-1681D01*
X42840Y-1181D01*
X86614D01*
Y-32229D01*
D02*
G37*
G36*
X18957Y-1681D02*
X18061Y-2577D01*
X17713Y-3098D01*
X17591Y-3712D01*
X17591Y-3712D01*
Y-12298D01*
X17591Y-12298D01*
X17713Y-12912D01*
X18061Y-13433D01*
X20883Y-16254D01*
Y-16580D01*
X20883Y-16580D01*
X20883Y-16580D01*
Y-29664D01*
X20883Y-29664D01*
X21005Y-30279D01*
X21353Y-30799D01*
X22583Y-32030D01*
X22419Y-32573D01*
X22051Y-32646D01*
X21400Y-33081D01*
X20965Y-33732D01*
X20812Y-34500D01*
X20965Y-35268D01*
X21400Y-35919D01*
X22051Y-36354D01*
X22819Y-36507D01*
X23587Y-36354D01*
X24154Y-35976D01*
X24654Y-36129D01*
Y-37037D01*
X22839D01*
X22038Y-37142D01*
X21292Y-37451D01*
X20651Y-37943D01*
X20160Y-38583D01*
X19851Y-39329D01*
X19811Y-39630D01*
X30000D01*
X29960Y-39329D01*
X29651Y-38583D01*
X29623Y-38547D01*
X29845Y-38098D01*
X32362D01*
Y-36417D01*
X28508D01*
Y-35417D01*
X32362D01*
Y-33736D01*
X31953D01*
Y-31124D01*
X35015D01*
X36364Y-32472D01*
X36157Y-32972D01*
X35978D01*
Y-35713D01*
X35568D01*
Y-37295D01*
X37750D01*
X39931D01*
Y-35713D01*
X39521D01*
Y-32972D01*
X38879D01*
Y-32303D01*
X38879Y-32303D01*
X38794Y-31877D01*
X38553Y-31517D01*
X36274Y-29238D01*
X36276Y-29186D01*
X36432Y-28738D01*
X40359D01*
X40703Y-28669D01*
X40994Y-28475D01*
X41189Y-28183D01*
X41257Y-27840D01*
Y-26097D01*
X41189Y-25754D01*
X40994Y-25462D01*
X41129Y-24958D01*
X41322Y-24766D01*
X42193D01*
Y-41953D01*
X37622Y-46524D01*
X32776D01*
X32620Y-46555D01*
X31323D01*
X31201Y-46555D01*
X30823Y-46260D01*
Y-46146D01*
X29339D01*
Y-48130D01*
X28839D01*
Y-48630D01*
X26854D01*
X26854Y-50017D01*
X26777Y-50200D01*
X26708Y-50298D01*
X26555Y-50490D01*
X26164Y-50751D01*
X25160Y-51755D01*
X24968Y-52042D01*
X23937D01*
X23438Y-52141D01*
X23015Y-52424D01*
X22207Y-53231D01*
X21925Y-53654D01*
X21825Y-54154D01*
Y-60020D01*
X21925Y-60519D01*
X22207Y-60942D01*
X23015Y-61749D01*
X23438Y-62032D01*
X23937Y-62131D01*
X25591D01*
X25717Y-62106D01*
X26953D01*
Y-62221D01*
X30602D01*
Y-57087D01*
X31602D01*
Y-62221D01*
X33958D01*
X34150Y-62682D01*
X33495Y-63337D01*
X30878Y-64266D01*
X30724Y-64157D01*
Y-64157D01*
X29240D01*
Y-66142D01*
X28240D01*
Y-64157D01*
X26756D01*
Y-65728D01*
X19719Y-68225D01*
X19451Y-67956D01*
X19395Y-67809D01*
X19431Y-67756D01*
X19508Y-67372D01*
Y-62598D01*
Y-59953D01*
X19589Y-59937D01*
X20175Y-59545D01*
X20567Y-58959D01*
X20704Y-58268D01*
X20567Y-57577D01*
X20175Y-56990D01*
X19589Y-56599D01*
X18898Y-56461D01*
X18206Y-56599D01*
X17620Y-56990D01*
X17229Y-57577D01*
X17091Y-58268D01*
X17229Y-58959D01*
X17500Y-59365D01*
Y-60925D01*
X13976D01*
Y-63819D01*
X13476Y-64026D01*
X13308Y-63857D01*
X12982Y-63640D01*
X12598Y-63563D01*
X12008D01*
Y-61713D01*
X3740D01*
Y-67421D01*
X12008D01*
Y-66103D01*
X12508Y-65896D01*
X13070Y-66458D01*
X13396Y-66675D01*
X13780Y-66752D01*
X13976D01*
Y-67421D01*
X16382D01*
X16574Y-67883D01*
X15826Y-68631D01*
X15608Y-68957D01*
X15532Y-69340D01*
Y-69711D01*
X1589Y-74658D01*
X1181Y-74370D01*
Y-64173D01*
Y-60236D01*
Y-1181D01*
X18750D01*
X18957Y-1681D01*
D02*
G37*
%LPC*%
G36*
X39931Y-6874D02*
X38250D01*
Y-8457D01*
X39931D01*
Y-6874D01*
D02*
G37*
G36*
X37250D02*
X35568D01*
Y-8457D01*
X37250D01*
Y-6874D01*
D02*
G37*
G36*
X71400Y-3098D02*
Y-16100D01*
X84402D01*
X84275Y-14482D01*
X83779Y-12415D01*
X82966Y-10452D01*
X81855Y-8640D01*
X80475Y-7024D01*
X78860Y-5644D01*
X77048Y-4534D01*
X75085Y-3721D01*
X73018Y-3225D01*
X71400Y-3098D01*
D02*
G37*
G36*
X70400D02*
X68782Y-3225D01*
X66715Y-3721D01*
X64752Y-4534D01*
X62940Y-5644D01*
X61325Y-7024D01*
X59944Y-8640D01*
X58834Y-10452D01*
X58021Y-12415D01*
X57525Y-14482D01*
X57398Y-16100D01*
X70400D01*
Y-3098D01*
D02*
G37*
G36*
X84402Y-17100D02*
X71400D01*
Y-30102D01*
X73018Y-29975D01*
X75085Y-29479D01*
X77048Y-28666D01*
X78860Y-27556D01*
X80475Y-26175D01*
X81855Y-24560D01*
X82966Y-22748D01*
X83779Y-20785D01*
X84275Y-18718D01*
X84402Y-17100D01*
D02*
G37*
G36*
X70400D02*
X57398D01*
X57525Y-18718D01*
X58021Y-20785D01*
X58834Y-22748D01*
X59944Y-24560D01*
X61325Y-26175D01*
X62940Y-27556D01*
X64752Y-28666D01*
X66715Y-29479D01*
X68782Y-29975D01*
X70400Y-30102D01*
Y-17100D01*
D02*
G37*
G36*
X10516Y-3021D02*
X8949D01*
Y-5614D01*
X13543D01*
X13504Y-5314D01*
X13195Y-4567D01*
X12703Y-3927D01*
X12062Y-3435D01*
X11316Y-3126D01*
X10516Y-3021D01*
D02*
G37*
G36*
X7949D02*
X6382D01*
X5581Y-3126D01*
X4835Y-3435D01*
X4194Y-3927D01*
X3703Y-4567D01*
X3394Y-5314D01*
X3354Y-5614D01*
X7949D01*
Y-3021D01*
D02*
G37*
G36*
X13543Y-6614D02*
X8949D01*
Y-9208D01*
X10516D01*
X11316Y-9102D01*
X12062Y-8793D01*
X12703Y-8302D01*
X13195Y-7661D01*
X13504Y-6915D01*
X13543Y-6614D01*
D02*
G37*
G36*
X7949D02*
X3354D01*
X3394Y-6915D01*
X3703Y-7661D01*
X4194Y-8302D01*
X4835Y-8793D01*
X5581Y-9102D01*
X6382Y-9208D01*
X7949D01*
Y-6614D01*
D02*
G37*
G36*
X10516Y-37037D02*
X8949D01*
Y-39630D01*
X13543D01*
X13504Y-39329D01*
X13195Y-38583D01*
X12703Y-37943D01*
X12062Y-37451D01*
X11316Y-37142D01*
X10516Y-37037D01*
D02*
G37*
G36*
X7949D02*
X6382D01*
X5581Y-37142D01*
X4835Y-37451D01*
X4194Y-37943D01*
X3703Y-38583D01*
X3394Y-39329D01*
X3354Y-39630D01*
X7949D01*
Y-37037D01*
D02*
G37*
G36*
X39931Y-38295D02*
X38250D01*
Y-39878D01*
X39931D01*
Y-38295D01*
D02*
G37*
G36*
X37250D02*
X35568D01*
Y-39878D01*
X37250D01*
Y-38295D01*
D02*
G37*
G36*
X30000Y-40630D02*
X25405D01*
Y-43223D01*
X26972D01*
X27773Y-43118D01*
X28519Y-42809D01*
X29160Y-42317D01*
X29651Y-41677D01*
X29960Y-40931D01*
X30000Y-40630D01*
D02*
G37*
G36*
X24406D02*
X19811D01*
X19851Y-40931D01*
X20160Y-41677D01*
X20651Y-42317D01*
X21292Y-42809D01*
X22038Y-43118D01*
X22839Y-43223D01*
X24406D01*
Y-40630D01*
D02*
G37*
G36*
X13543D02*
X8949D01*
Y-43223D01*
X10516D01*
X11316Y-43118D01*
X12062Y-42809D01*
X12703Y-42317D01*
X13195Y-41677D01*
X13504Y-40931D01*
X13543Y-40630D01*
D02*
G37*
G36*
X7949D02*
X3354D01*
X3394Y-40931D01*
X3703Y-41677D01*
X4194Y-42317D01*
X4835Y-42809D01*
X5581Y-43118D01*
X6382Y-43223D01*
X7949D01*
Y-40630D01*
D02*
G37*
G36*
X28339Y-46146D02*
X26854D01*
Y-47630D01*
X28339D01*
Y-46146D01*
D02*
G37*
G36*
X12417Y-49492D02*
X8374D01*
Y-52256D01*
X12417D01*
Y-49492D01*
D02*
G37*
G36*
X7374D02*
X3331D01*
Y-52256D01*
X7374D01*
Y-49492D01*
D02*
G37*
G36*
X12417Y-53256D02*
X8374D01*
Y-56020D01*
X12417D01*
Y-53256D01*
D02*
G37*
G36*
X7374D02*
X3331D01*
Y-56020D01*
X7374D01*
Y-53256D01*
D02*
G37*
%LPD*%
D11*
X99700Y-60600D02*
X174250D01*
X177850Y-57098D02*
Y-57000D01*
X177161Y-57787D02*
X177850Y-57098D01*
X177063Y-57787D02*
X177161D01*
X174250Y-60600D02*
X177063Y-57787D01*
X92129Y-61471D02*
X98830D01*
X91085Y-62515D02*
X92129Y-61471D01*
X98830D02*
X99700Y-60600D01*
X91085Y-66690D02*
X93121Y-68726D01*
X93774D02*
X100100Y-62400D01*
X176324D01*
X93121Y-68726D02*
X93774D01*
X176324Y-62400D02*
X177825Y-60898D01*
X117717Y-64961D02*
X119646Y-66890D01*
X105512Y-65354D02*
X108425Y-68268D01*
X122855Y-65500D02*
X182035D01*
X119646Y-66890D02*
X181457D01*
X180866Y-68268D02*
X184055Y-71457D01*
X122080Y-64724D02*
X122855Y-65500D01*
X108425Y-68268D02*
X180866D01*
X181457Y-66890D02*
X185433Y-70866D01*
X121653Y-64724D02*
X122080D01*
X97798Y-70866D02*
X100689D01*
X189002Y-54724D02*
X208425D01*
X186826Y-56900D02*
X189002Y-54724D01*
X181000Y-57000D02*
X181100Y-56900D01*
X186826D01*
X208425Y-54724D02*
X212362Y-58661D01*
X181664Y-61587D02*
X187991D01*
X189002Y-62598D02*
X198425D01*
X202362Y-58661D01*
X180975Y-60898D02*
Y-60800D01*
Y-60898D02*
X181664Y-61587D01*
X187991D02*
X189002Y-62598D01*
X177825Y-60898D02*
Y-60800D01*
X182035Y-65500D02*
X186909Y-70374D01*
X185433Y-75906D02*
Y-70866D01*
X184055Y-74902D02*
Y-71457D01*
X186909Y-94429D02*
Y-70374D01*
X181791Y-77165D02*
X184055Y-74902D01*
X179134Y-82205D02*
X185433Y-75906D01*
X176575Y-77165D02*
X181791D01*
X173917Y-79823D02*
X176575Y-77165D01*
X173917Y-86988D02*
Y-79823D01*
X79612Y-43518D02*
X82368Y-46274D01*
X75774Y-47203D02*
X79612Y-43365D01*
X96452Y-80641D02*
Y-77653D01*
X95995Y-56232D02*
X97598Y-57834D01*
X105610D01*
X54999Y-52875D02*
X59256Y-57132D01*
X53051Y-50927D02*
X54999Y-52875D01*
X61159Y-64602D02*
X67562D01*
X55118Y-57874D02*
X55419Y-58175D01*
X57462D01*
X59017Y-59731D02*
X59071D01*
X57462Y-58175D02*
X59017Y-59731D01*
X50689Y-60630D02*
X54402D01*
X49325Y-61994D02*
X50689Y-60630D01*
X54402D02*
X56287Y-62515D01*
X44390Y-67716D02*
Y-67323D01*
X46541Y-65171D01*
X54839Y-50059D02*
X60584Y-55804D01*
X53051Y-33915D02*
X55085Y-31881D01*
X60584Y-55804D02*
X60659D01*
X53051Y-50927D02*
Y-33915D01*
X54839Y-50059D02*
Y-34655D01*
X56873Y-32621D01*
X179134Y-102205D02*
X186909Y-94429D01*
X173917Y-86988D02*
X179134Y-92205D01*
X87500Y-35433D02*
X109744Y-57677D01*
Y-57972D02*
Y-57677D01*
X71161Y-35433D02*
X87500D01*
X113976Y-57874D02*
Y-57734D01*
X89475Y-33233D02*
X113976Y-57734D01*
X64307Y-33233D02*
X89475D01*
X98886Y-77653D02*
X99440Y-77098D01*
Y-77491D02*
X102165Y-80216D01*
X99440Y-77491D02*
Y-77098D01*
X65256Y-41437D02*
Y-41339D01*
X67618Y-43898D02*
Y-43799D01*
X65256Y-41437D02*
X67618Y-43799D01*
X68416Y-46861D02*
X69008Y-47453D01*
X68416Y-46861D02*
Y-46209D01*
X70153Y-48595D02*
X70206D01*
X69008Y-47453D02*
X69011D01*
X70153Y-48595D01*
X68416Y-46209D02*
X76929Y-37697D01*
X81946D01*
X88202Y-43953D01*
Y-48795D02*
Y-43953D01*
Y-48795D02*
X93670Y-54263D01*
X71598Y-47203D02*
X75492Y-43309D01*
X44193Y-96162D02*
Y-87728D01*
X48150Y-19488D02*
X48670Y-20009D01*
X51713D01*
X54007Y-22303D01*
X55365D01*
X56873Y-32621D02*
Y-23811D01*
X53972Y-24090D02*
X54624D01*
X51713Y-26350D02*
X53972Y-24090D01*
X54624D02*
X55085Y-24552D01*
Y-31881D02*
Y-24552D01*
X55365Y-22303D02*
X56873Y-23811D01*
X48768Y-26350D02*
X51713D01*
X48150Y-26969D02*
X48768Y-26350D01*
X58306Y-39233D02*
X64307Y-33233D01*
X58237Y-44556D02*
X58306Y-44486D01*
Y-39233D01*
X68012Y-38583D02*
X71161Y-35433D01*
X88301Y-59731D02*
X93670Y-54362D01*
X64638Y-54163D02*
Y-54163D01*
X62573Y-52098D02*
X64638Y-54163D01*
X62573Y-52098D02*
Y-51197D01*
X63163Y-50608D02*
Y-50075D01*
X62573Y-51197D02*
X63163Y-50608D01*
X46541Y-65171D02*
Y-64778D01*
X51083Y-69291D02*
X53686D01*
X56287Y-66690D01*
X40099Y-83634D02*
X47933Y-75799D01*
X49325Y-67506D02*
Y-61994D01*
X47933Y-75799D02*
Y-68898D01*
X49325Y-67506D01*
X54952Y-74083D02*
Y-70809D01*
X57679Y-68082D01*
X43996Y-96358D02*
X44193Y-96162D01*
Y-87728D02*
X47607D01*
X77204Y-87224D02*
X78445Y-85983D01*
X77166Y-80663D02*
X78445Y-81942D01*
Y-85983D02*
Y-81942D01*
X77204Y-91337D02*
Y-87224D01*
X77135Y-91406D02*
X77204Y-91337D01*
X16535Y-74114D02*
Y-69340D01*
X18504Y-67372D02*
Y-62598D01*
X15748Y-74803D02*
X15846D01*
X16535Y-74114D01*
Y-69340D02*
X18504Y-67372D01*
X77166Y-80663D02*
Y-80610D01*
X60659Y-55804D02*
X61801Y-56947D01*
X59320Y-57143D02*
X60462Y-58285D01*
X61801Y-56947D02*
X61854D01*
X60462Y-58339D02*
Y-58285D01*
X73686Y-70727D02*
Y-64602D01*
Y-76851D02*
Y-70727D01*
Y-77130D02*
Y-76851D01*
X70206Y-80610D02*
X73686Y-77130D01*
X96291Y-69359D02*
X97798Y-70866D01*
X82734Y-75042D02*
X84815Y-77123D01*
Y-79401D02*
Y-77123D01*
Y-79401D02*
X91351Y-85938D01*
X91522D01*
X81342Y-76434D02*
X83240Y-78332D01*
Y-80054D02*
Y-78332D01*
Y-80054D02*
X84449Y-81262D01*
Y-89443D02*
Y-81262D01*
Y-89443D02*
X86233Y-91227D01*
X96712Y-91128D02*
X99128D01*
X91522Y-85938D02*
X96712Y-91128D01*
X91423Y-98833D02*
Y-96417D01*
X86233Y-91227D02*
X91423Y-96417D01*
X86910Y-77587D02*
Y-76434D01*
Y-77587D02*
X87486Y-78164D01*
X84126Y-73650D02*
X86910Y-76434D01*
X85518Y-72258D02*
X88639Y-75380D01*
X90270D01*
X87601Y-78279D02*
X93670D01*
X87486Y-78164D02*
X87601Y-78279D01*
X86910Y-70866D02*
X88850Y-72807D01*
X91606D01*
X96452Y-77653D01*
X95897Y-80641D02*
X96452D01*
Y-77653D02*
X98886D01*
X97213Y-74871D02*
Y-74736D01*
X94064Y-71586D02*
X97213Y-74736D01*
X88301Y-69474D02*
X90059Y-71232D01*
X93709D01*
X94064Y-71586D01*
X93670Y-54362D02*
Y-54263D01*
X59283Y-79201D02*
X63263D01*
X66030Y-76434D01*
X61713Y-40428D02*
X63029Y-39112D01*
X65785Y-36356D01*
X61713Y-43777D02*
Y-40428D01*
X66164Y-48228D02*
X67056D01*
X68814Y-49987D01*
X61713Y-43777D02*
X66164Y-48228D01*
X39992Y-70799D02*
X43811Y-74618D01*
X40099Y-83634D02*
X44193Y-87728D01*
X57679Y-61123D02*
X61159Y-64602D01*
X67562D02*
X73686D01*
Y-58478D02*
Y-52353D01*
Y-52075D01*
Y-64602D02*
Y-60427D01*
Y-58478D01*
X77862Y-64602D02*
X85518Y-72258D01*
X73686Y-64602D02*
X77862D01*
X7874Y-76772D02*
X12205D01*
X13386Y-77953D01*
X15748D01*
X7874Y-64567D02*
X12598D01*
X13780Y-65748D01*
X15748D01*
X60464Y-52772D02*
X63246Y-55555D01*
X73686Y-60427D02*
X81342Y-52771D01*
X73686Y-52075D02*
X77166Y-48595D01*
X15748Y-62598D02*
X18504D01*
Y-58661D01*
X18898Y-58268D01*
X60464Y-52772D02*
Y-46783D01*
D14*
X205553Y-51139D02*
X207353D01*
X184953D02*
X186553D01*
X173753D02*
X175153D01*
X163553D02*
X165153D01*
X149153D02*
X150753D01*
X138953D02*
X140753D01*
X204753Y-50939D02*
X208353D01*
X198953D02*
X200353D01*
X192553D02*
X193753D01*
X184153D02*
X187553D01*
X177753D02*
X178953D01*
X173153D02*
X175753D01*
X167553D02*
X168753D01*
X162753D02*
X166153D01*
X156953D02*
X158153D01*
X148353D02*
X151753D01*
X138153D02*
X141753D01*
X204153Y-50739D02*
X208753D01*
X198953D02*
X200353D01*
X192553D02*
X193753D01*
X183753D02*
X187953D01*
X177753D02*
X178953D01*
X172753D02*
X175753D01*
X167553D02*
X168753D01*
X162353D02*
X166553D01*
X156953D02*
X158153D01*
X147953D02*
X152153D01*
X137553D02*
X142153D01*
X203953Y-50539D02*
X209153D01*
X198953D02*
X200353D01*
X192553D02*
X193753D01*
X183353D02*
X188353D01*
X177753D02*
X178953D01*
X172553D02*
X175553D01*
X167553D02*
X168753D01*
X162153D02*
X166953D01*
X156953D02*
X158153D01*
X147553D02*
X152553D01*
X137353D02*
X142553D01*
X203553Y-50339D02*
X209353D01*
X198953D02*
X200353D01*
X192553D02*
X193753D01*
X183153D02*
X188553D01*
X177753D02*
X178953D01*
X172553D02*
X175553D01*
X167553D02*
X168753D01*
X161953D02*
X167153D01*
X156953D02*
X158153D01*
X147353D02*
X152753D01*
X136953D02*
X142753D01*
X203353Y-50139D02*
X209553D01*
X198953D02*
X200353D01*
X192553D02*
X193753D01*
X182953D02*
X188753D01*
X177753D02*
X178953D01*
X172353D02*
X175553D01*
X167553D02*
X168753D01*
X161753D02*
X167353D01*
X156953D02*
X158153D01*
X146953D02*
X152953D01*
X136753D02*
X142953D01*
X207353Y-49939D02*
X209753D01*
X203153D02*
X205553D01*
X198953D02*
X200353D01*
X192553D02*
X193753D01*
X186553D02*
X188953D01*
X182553D02*
X185153D01*
X177753D02*
X178953D01*
X175353D02*
X175553D01*
X172353D02*
X174153D01*
X165353D02*
X168753D01*
X161553D02*
X163953D01*
X156953D02*
X158153D01*
X150753D02*
X153153D01*
X146753D02*
X149353D01*
X140753D02*
X143153D01*
X136553D02*
X138953D01*
X207953Y-49739D02*
X209953D01*
X202953D02*
X204953D01*
X198953D02*
X200353D01*
X192553D02*
X193753D01*
X187153D02*
X189153D01*
X182553D02*
X184553D01*
X177753D02*
X178953D01*
X172153D02*
X173753D01*
X165953D02*
X168753D01*
X161553D02*
X163353D01*
X156953D02*
X158153D01*
X151353D02*
X153353D01*
X146753D02*
X148753D01*
X141353D02*
X143353D01*
X136353D02*
X138353D01*
X208353Y-49539D02*
X210153D01*
X202953D02*
X204753D01*
X198953D02*
X200353D01*
X192553D02*
X193753D01*
X187553D02*
X189353D01*
X182353D02*
X184153D01*
X177753D02*
X178953D01*
X172153D02*
X173553D01*
X166353D02*
X168753D01*
X161353D02*
X163153D01*
X156953D02*
X158153D01*
X151753D02*
X153553D01*
X146553D02*
X148353D01*
X141753D02*
X143553D01*
X136353D02*
X138153D01*
X208553Y-49339D02*
X210153D01*
X202753D02*
X204353D01*
X198953D02*
X200353D01*
X192553D02*
X193753D01*
X187753D02*
X189553D01*
X182153D02*
X183953D01*
X177753D02*
X178953D01*
X172153D02*
X173553D01*
X166553D02*
X168753D01*
X161353D02*
X162953D01*
X156953D02*
X158153D01*
X151953D02*
X153753D01*
X146353D02*
X148153D01*
X141953D02*
X143553D01*
X136153D02*
X137753D01*
X208753Y-49139D02*
X210153D01*
X202753D02*
X204153D01*
X198953D02*
X200353D01*
X192553D02*
X193753D01*
X187953D02*
X189753D01*
X181953D02*
X183753D01*
X177753D02*
X178953D01*
X172153D02*
X173553D01*
X166753D02*
X168753D01*
X161153D02*
X162753D01*
X156953D02*
X158153D01*
X152153D02*
X153953D01*
X146153D02*
X147953D01*
X142153D02*
X143553D01*
X136153D02*
X137553D01*
X208953Y-48939D02*
X210353D01*
X202553D02*
X204153D01*
X198953D02*
X200353D01*
X192553D02*
X193753D01*
X188153D02*
X189753D01*
X181953D02*
X183553D01*
X177753D02*
X178953D01*
X172153D02*
X173353D01*
X166953D02*
X168753D01*
X161153D02*
X162553D01*
X156953D02*
X158153D01*
X152353D02*
X153953D01*
X146153D02*
X147753D01*
X142353D02*
X143753D01*
X135953D02*
X137553D01*
X208953Y-48739D02*
X210353D01*
X202553D02*
X203953D01*
X198953D02*
X200353D01*
X192553D02*
X193753D01*
X188353D02*
X189953D01*
X181753D02*
X183353D01*
X177753D02*
X178953D01*
X172153D02*
X173353D01*
X167153D02*
X168753D01*
X161153D02*
X162553D01*
X156953D02*
X158153D01*
X152553D02*
X154153D01*
X145953D02*
X147553D01*
X142353D02*
X143753D01*
X135953D02*
X137353D01*
X208953Y-48539D02*
X210353D01*
X202553D02*
X203953D01*
X198953D02*
X200353D01*
X192553D02*
X193753D01*
X188353D02*
X189953D01*
X181753D02*
X183153D01*
X177753D02*
X178953D01*
X172153D02*
X173353D01*
X167153D02*
X168753D01*
X160953D02*
X162553D01*
X156953D02*
X158153D01*
X152553D02*
X154153D01*
X145953D02*
X147353D01*
X142353D02*
X143753D01*
X135953D02*
X137353D01*
X208953Y-48339D02*
X210353D01*
X202553D02*
X203953D01*
X198953D02*
X200353D01*
X192553D02*
X193753D01*
X188553D02*
X189953D01*
X181553D02*
X183153D01*
X177753D02*
X178953D01*
X172153D02*
X173353D01*
X167353D02*
X168753D01*
X160953D02*
X162353D01*
X156953D02*
X158153D01*
X152753D02*
X154153D01*
X145753D02*
X147353D01*
X142353D02*
X143753D01*
X135953D02*
X137353D01*
X208953Y-48139D02*
X210353D01*
X202553D02*
X203753D01*
X198953D02*
X200353D01*
X192553D02*
X193753D01*
X188753D02*
X190153D01*
X181553D02*
X182953D01*
X177753D02*
X178953D01*
X172153D02*
X173353D01*
X167353D02*
X168753D01*
X160953D02*
X162353D01*
X156953D02*
X158153D01*
X152953D02*
X154353D01*
X145753D02*
X147153D01*
X142353D02*
X143753D01*
X135953D02*
X137153D01*
X208953Y-47939D02*
X210353D01*
X198953D02*
X200353D01*
X192553D02*
X193753D01*
X188753D02*
X190153D01*
X181553D02*
X182953D01*
X177753D02*
X178953D01*
X172153D02*
X173353D01*
X167553D02*
X168753D01*
X160953D02*
X162353D01*
X156953D02*
X158153D01*
X152953D02*
X154353D01*
X145753D02*
X147153D01*
X142353D02*
X143753D01*
X208953Y-47739D02*
X210353D01*
X198953D02*
X200353D01*
X192553D02*
X193753D01*
X188753D02*
X190153D01*
X181353D02*
X182953D01*
X177753D02*
X178953D01*
X172153D02*
X173353D01*
X167553D02*
X168753D01*
X160953D02*
X162353D01*
X156953D02*
X158153D01*
X152953D02*
X154353D01*
X145553D02*
X146953D01*
X142353D02*
X143753D01*
X208753Y-47539D02*
X210353D01*
X198953D02*
X200353D01*
X192553D02*
X193753D01*
X188953D02*
X190353D01*
X181353D02*
X182753D01*
X177753D02*
X178953D01*
X172153D02*
X173353D01*
X167553D02*
X168753D01*
X160953D02*
X162353D01*
X156953D02*
X158153D01*
X153153D02*
X154553D01*
X145553D02*
X146953D01*
X142153D02*
X143753D01*
X208553Y-47339D02*
X210153D01*
X198953D02*
X200353D01*
X192553D02*
X193753D01*
X188953D02*
X190353D01*
X181353D02*
X182753D01*
X177753D02*
X178953D01*
X172153D02*
X173353D01*
X167553D02*
X168753D01*
X160953D02*
X162353D01*
X156953D02*
X158153D01*
X153153D02*
X154553D01*
X145553D02*
X146953D01*
X141953D02*
X143553D01*
X208353Y-47139D02*
X210153D01*
X198953D02*
X200353D01*
X192553D02*
X193753D01*
X188953D02*
X190353D01*
X181353D02*
X182753D01*
X177753D02*
X178953D01*
X172153D02*
X173353D01*
X167553D02*
X168753D01*
X160953D02*
X162353D01*
X156953D02*
X158153D01*
X153153D02*
X154553D01*
X145553D02*
X146953D01*
X141753D02*
X143553D01*
X208153Y-46939D02*
X209953D01*
X198953D02*
X200353D01*
X192553D02*
X193753D01*
X188953D02*
X190353D01*
X181353D02*
X182553D01*
X177753D02*
X178953D01*
X172153D02*
X173353D01*
X167553D02*
X168753D01*
X160953D02*
X162353D01*
X156953D02*
X158153D01*
X153153D02*
X154553D01*
X145553D02*
X146753D01*
X141553D02*
X143353D01*
X207753Y-46739D02*
X209953D01*
X198953D02*
X200353D01*
X192553D02*
X193753D01*
X189153D02*
X190353D01*
X181353D02*
X182553D01*
X177753D02*
X178953D01*
X172153D02*
X173353D01*
X167553D02*
X168753D01*
X160953D02*
X162353D01*
X156953D02*
X158153D01*
X153353D02*
X154553D01*
X145553D02*
X146753D01*
X141153D02*
X143353D01*
X207153Y-46539D02*
X209753D01*
X198953D02*
X200353D01*
X192553D02*
X193753D01*
X189153D02*
X190353D01*
X181353D02*
X182553D01*
X177753D02*
X178953D01*
X172153D02*
X173353D01*
X167553D02*
X168753D01*
X160953D02*
X162353D01*
X156953D02*
X158153D01*
X153353D02*
X154553D01*
X145553D02*
X146753D01*
X140553D02*
X143153D01*
X206353Y-46339D02*
X209553D01*
X198953D02*
X200353D01*
X192553D02*
X193753D01*
X189153D02*
X190353D01*
X181153D02*
X182553D01*
X177753D02*
X178953D01*
X172153D02*
X173353D01*
X167553D02*
X168753D01*
X160953D02*
X162353D01*
X156953D02*
X158153D01*
X153353D02*
X154553D01*
X145353D02*
X146753D01*
X139753D02*
X142953D01*
X205553Y-46139D02*
X209353D01*
X198953D02*
X200353D01*
X192553D02*
X193753D01*
X189153D02*
X190353D01*
X181153D02*
X182553D01*
X177753D02*
X178953D01*
X172153D02*
X173353D01*
X167553D02*
X168753D01*
X160953D02*
X162353D01*
X156953D02*
X158153D01*
X153353D02*
X154553D01*
X145353D02*
X146753D01*
X138953D02*
X142753D01*
X204953Y-45939D02*
X208953D01*
X198953D02*
X200353D01*
X192553D02*
X193753D01*
X189153D02*
X190353D01*
X181153D02*
X182553D01*
X177753D02*
X178953D01*
X172153D02*
X173353D01*
X167553D02*
X168753D01*
X160953D02*
X162353D01*
X156953D02*
X158153D01*
X153353D02*
X154553D01*
X145353D02*
X146753D01*
X138353D02*
X142353D01*
X204353Y-45739D02*
X208553D01*
X198953D02*
X200353D01*
X192553D02*
X193753D01*
X189153D02*
X190353D01*
X181153D02*
X182553D01*
X177753D02*
X178953D01*
X172153D02*
X173353D01*
X167553D02*
X168753D01*
X160953D02*
X162353D01*
X156953D02*
X158153D01*
X153353D02*
X154553D01*
X145353D02*
X146753D01*
X137753D02*
X141953D01*
X203953Y-45539D02*
X207953D01*
X198953D02*
X200353D01*
X192553D02*
X193753D01*
X189153D02*
X190353D01*
X181153D02*
X182553D01*
X177753D02*
X178953D01*
X172153D02*
X173353D01*
X167553D02*
X168753D01*
X160953D02*
X162353D01*
X156953D02*
X158153D01*
X153353D02*
X154553D01*
X145353D02*
X146753D01*
X137353D02*
X141353D01*
X203753Y-45339D02*
X207353D01*
X198953D02*
X200353D01*
X192553D02*
X193753D01*
X189153D02*
X190353D01*
X181153D02*
X182553D01*
X177753D02*
X178953D01*
X172153D02*
X173353D01*
X167553D02*
X168753D01*
X160953D02*
X162353D01*
X156953D02*
X158153D01*
X153353D02*
X154553D01*
X145353D02*
X146753D01*
X137153D02*
X140753D01*
X203553Y-45139D02*
X206553D01*
X198953D02*
X200353D01*
X192553D02*
X193753D01*
X189153D02*
X190353D01*
X181353D02*
X182553D01*
X177753D02*
X178953D01*
X172153D02*
X173353D01*
X167553D02*
X168753D01*
X160953D02*
X162353D01*
X156953D02*
X158153D01*
X153353D02*
X154553D01*
X145553D02*
X146753D01*
X136953D02*
X139953D01*
X203353Y-44939D02*
X205753D01*
X198953D02*
X200353D01*
X192553D02*
X193753D01*
X189153D02*
X190353D01*
X181353D02*
X182553D01*
X177753D02*
X178953D01*
X172153D02*
X173353D01*
X167553D02*
X168753D01*
X160953D02*
X162353D01*
X156953D02*
X158153D01*
X153353D02*
X154553D01*
X145553D02*
X146753D01*
X136753D02*
X139153D01*
X203153Y-44739D02*
X205353D01*
X198953D02*
X200353D01*
X192553D02*
X193753D01*
X188953D02*
X190353D01*
X181353D02*
X182753D01*
X177753D02*
X178953D01*
X172153D02*
X173353D01*
X167553D02*
X168753D01*
X160953D02*
X162353D01*
X156953D02*
X158153D01*
X153153D02*
X154553D01*
X145553D02*
X146953D01*
X136553D02*
X138753D01*
X202953Y-44539D02*
X204953D01*
X198953D02*
X200353D01*
X192553D02*
X193753D01*
X188953D02*
X190353D01*
X181353D02*
X182753D01*
X177753D02*
X178953D01*
X172153D02*
X173353D01*
X167553D02*
X168753D01*
X160953D02*
X162353D01*
X156953D02*
X158153D01*
X153153D02*
X154553D01*
X145553D02*
X146953D01*
X136353D02*
X138353D01*
X202953Y-44339D02*
X204553D01*
X198953D02*
X200353D01*
X192553D02*
X193753D01*
X188953D02*
X190353D01*
X181353D02*
X182753D01*
X177753D02*
X178953D01*
X172153D02*
X173353D01*
X167553D02*
X168753D01*
X160953D02*
X162353D01*
X156953D02*
X158153D01*
X153153D02*
X154553D01*
X145553D02*
X146953D01*
X136353D02*
X137953D01*
X202953Y-44139D02*
X204353D01*
X198953D02*
X200353D01*
X192553D02*
X193753D01*
X188953D02*
X190353D01*
X181353D02*
X182753D01*
X177753D02*
X178953D01*
X172153D02*
X173353D01*
X167553D02*
X168753D01*
X160953D02*
X162353D01*
X156953D02*
X158153D01*
X153153D02*
X154553D01*
X145553D02*
X146953D01*
X136353D02*
X137753D01*
X202953Y-43939D02*
X204353D01*
X198953D02*
X200353D01*
X192553D02*
X193953D01*
X188753D02*
X190153D01*
X181553D02*
X182953D01*
X177753D02*
X178953D01*
X172153D02*
X173353D01*
X167553D02*
X168753D01*
X160953D02*
X162353D01*
X156953D02*
X158153D01*
X152953D02*
X154353D01*
X145553D02*
X147153D01*
X136353D02*
X137753D01*
X208953Y-43739D02*
X210353D01*
X202753D02*
X204153D01*
X198953D02*
X200353D01*
X192553D02*
X193953D01*
X188753D02*
X190153D01*
X181553D02*
X182953D01*
X177753D02*
X178953D01*
X172153D02*
X173353D01*
X167553D02*
X168753D01*
X160953D02*
X162353D01*
X156953D02*
X158153D01*
X152953D02*
X154353D01*
X145753D02*
X147153D01*
X142353D02*
X143753D01*
X136153D02*
X137553D01*
X208953Y-43539D02*
X210353D01*
X202753D02*
X204153D01*
X198953D02*
X200353D01*
X192553D02*
X194153D01*
X188553D02*
X190153D01*
X181553D02*
X183153D01*
X177753D02*
X178953D01*
X172153D02*
X173353D01*
X167553D02*
X168753D01*
X160953D02*
X162353D01*
X156953D02*
X158153D01*
X152753D02*
X154353D01*
X145753D02*
X147353D01*
X142353D02*
X143753D01*
X136153D02*
X137553D01*
X208953Y-43339D02*
X210353D01*
X202753D02*
X204153D01*
X198953D02*
X200353D01*
X192553D02*
X194153D01*
X188553D02*
X189953D01*
X181753D02*
X183153D01*
X177753D02*
X178953D01*
X172153D02*
X173353D01*
X167553D02*
X168753D01*
X160953D02*
X162353D01*
X156953D02*
X158153D01*
X152753D02*
X154153D01*
X145953D02*
X147353D01*
X142353D02*
X143753D01*
X136153D02*
X137553D01*
X208953Y-43139D02*
X210353D01*
X202753D02*
X204153D01*
X198753D02*
X200153D01*
X192553D02*
X194353D01*
X188353D02*
X189953D01*
X181753D02*
X183353D01*
X177753D02*
X178953D01*
X172153D02*
X173353D01*
X167553D02*
X168753D01*
X160953D02*
X162353D01*
X156953D02*
X158153D01*
X152553D02*
X154153D01*
X145953D02*
X147553D01*
X142353D02*
X143753D01*
X136153D02*
X137553D01*
X208753Y-42939D02*
X210153D01*
X202753D02*
X204153D01*
X198753D02*
X200153D01*
X192553D02*
X194553D01*
X188153D02*
X189753D01*
X181753D02*
X183353D01*
X177753D02*
X178953D01*
X172153D02*
X173353D01*
X167553D02*
X168753D01*
X160953D02*
X162353D01*
X156953D02*
X158153D01*
X152353D02*
X153953D01*
X145953D02*
X147553D01*
X142153D02*
X143553D01*
X136153D02*
X137553D01*
X208753Y-42739D02*
X210153D01*
X202953D02*
X204353D01*
X198753D02*
X200153D01*
X192553D02*
X194553D01*
X188153D02*
X189753D01*
X181953D02*
X183553D01*
X177753D02*
X178953D01*
X172153D02*
X173353D01*
X167553D02*
X168753D01*
X160953D02*
X162353D01*
X156953D02*
X158153D01*
X152353D02*
X153953D01*
X146153D02*
X147753D01*
X142153D02*
X143553D01*
X136353D02*
X137753D01*
X208553Y-42539D02*
X210153D01*
X202953D02*
X204353D01*
X198553D02*
X200153D01*
X192553D02*
X194753D01*
X187953D02*
X189553D01*
X182153D02*
X183753D01*
X177753D02*
X178953D01*
X172153D02*
X173353D01*
X167553D02*
X168753D01*
X160953D02*
X162353D01*
X156953D02*
X158153D01*
X152153D02*
X153753D01*
X146353D02*
X147953D01*
X141953D02*
X143553D01*
X136353D02*
X137753D01*
X208353Y-42339D02*
X209953D01*
X202953D02*
X204553D01*
X198353D02*
X199953D01*
X192553D02*
X194953D01*
X187753D02*
X189553D01*
X182153D02*
X183953D01*
X177753D02*
X178953D01*
X172153D02*
X173353D01*
X167553D02*
X168753D01*
X160953D02*
X162353D01*
X156953D02*
X158153D01*
X151953D02*
X153753D01*
X146353D02*
X148153D01*
X141753D02*
X143353D01*
X136353D02*
X137953D01*
X207953Y-42139D02*
X209953D01*
X203153D02*
X204953D01*
X198153D02*
X199953D01*
X192553D02*
X195353D01*
X187353D02*
X189353D01*
X182353D02*
X184353D01*
X177753D02*
X178953D01*
X172153D02*
X173353D01*
X167553D02*
X168753D01*
X160953D02*
X162353D01*
X156953D02*
X158153D01*
X151553D02*
X153553D01*
X146553D02*
X148553D01*
X141353D02*
X143353D01*
X136553D02*
X138353D01*
X207753Y-41939D02*
X209753D01*
X203153D02*
X205153D01*
X197953D02*
X199953D01*
X193953D02*
X195753D01*
X192553D02*
X193753D01*
X186953D02*
X189153D01*
X182553D02*
X184753D01*
X177753D02*
X178953D01*
X172153D02*
X173353D01*
X167553D02*
X168753D01*
X160953D02*
X162353D01*
X156953D02*
X158153D01*
X151153D02*
X153353D01*
X146753D02*
X148953D01*
X141153D02*
X143153D01*
X136553D02*
X138553D01*
X206953Y-41739D02*
X209553D01*
X203353D02*
X205953D01*
X197153D02*
X199753D01*
X194153D02*
X196353D01*
X192553D02*
X193753D01*
X186353D02*
X188953D01*
X182753D02*
X185353D01*
X177753D02*
X178953D01*
X170153D02*
X175553D01*
X167553D02*
X168753D01*
X160953D02*
X162353D01*
X156953D02*
X158153D01*
X150553D02*
X153153D01*
X146953D02*
X149553D01*
X140353D02*
X142953D01*
X136753D02*
X139353D01*
X203553Y-41539D02*
X209553D01*
X194353D02*
X199553D01*
X192553D02*
X193753D01*
X182953D02*
X188753D01*
X177753D02*
X178953D01*
X170153D02*
X175553D01*
X167553D02*
X168753D01*
X160953D02*
X162353D01*
X156953D02*
X158153D01*
X147153D02*
X152953D01*
X136953D02*
X142953D01*
X203753Y-41339D02*
X209153D01*
X194553D02*
X199353D01*
X192553D02*
X193753D01*
X183153D02*
X188553D01*
X177753D02*
X178953D01*
X170153D02*
X175553D01*
X167553D02*
X168753D01*
X160953D02*
X162353D01*
X156953D02*
X158153D01*
X147353D02*
X152753D01*
X137153D02*
X142553D01*
X204153Y-41139D02*
X208953D01*
X194953D02*
X199153D01*
X192553D02*
X193753D01*
X183553D02*
X188153D01*
X177753D02*
X178953D01*
X170153D02*
X175553D01*
X167553D02*
X168753D01*
X160953D02*
X162353D01*
X156953D02*
X158153D01*
X147753D02*
X152353D01*
X137553D02*
X142353D01*
X204353Y-40939D02*
X208553D01*
X195153D02*
X198953D01*
X192553D02*
X193753D01*
X183953D02*
X187753D01*
X177753D02*
X178953D01*
X170153D02*
X175553D01*
X167553D02*
X168753D01*
X160953D02*
X162353D01*
X156953D02*
X158153D01*
X148153D02*
X151953D01*
X137753D02*
X141953D01*
X204953Y-40739D02*
X207953D01*
X195753D02*
X198353D01*
X192553D02*
X193753D01*
X184353D02*
X187353D01*
X177753D02*
X178953D01*
X170153D02*
X175553D01*
X167553D02*
X168753D01*
X160953D02*
X162353D01*
X156953D02*
X158153D01*
X148553D02*
X151553D01*
X138353D02*
X141353D01*
X172153Y-40539D02*
X173353D01*
X156953D02*
X158153D01*
X172153Y-40339D02*
X173353D01*
X156953D02*
X158153D01*
X172153Y-40139D02*
X173353D01*
X156953D02*
X158153D01*
X172153Y-39939D02*
X173353D01*
X156953D02*
X158153D01*
X172153Y-39739D02*
X173353D01*
X156953D02*
X158153D01*
X172153Y-39539D02*
X173353D01*
X156953D02*
X158153D01*
X172153Y-39339D02*
X173353D01*
X156953D02*
X158153D01*
X172153Y-39139D02*
X173353D01*
X156953D02*
X158153D01*
X172153Y-38939D02*
X173353D01*
X156953D02*
X158153D01*
X178153Y-38739D02*
X178753D01*
X172153D02*
X173353D01*
X156953D02*
X158153D01*
X177753Y-38539D02*
X179153D01*
X172153D02*
X173353D01*
X156953D02*
X158153D01*
X177553Y-38339D02*
X179153D01*
X172153D02*
X173353D01*
X156953D02*
X158153D01*
X177553Y-38139D02*
X179153D01*
X156953D02*
X158153D01*
X177553Y-37939D02*
X179353D01*
X156953D02*
X158153D01*
X177553Y-37739D02*
X179353D01*
X156953D02*
X158153D01*
X177553Y-37539D02*
X179153D01*
X156953D02*
X158153D01*
X177753Y-37339D02*
X179153D01*
X156953D02*
X158153D01*
X177953Y-37139D02*
X178753D01*
X156953D02*
X158153D01*
X156953Y-36939D02*
X158153D01*
X156953Y-36739D02*
X158153D01*
X156953Y-36539D02*
X158153D01*
X207353Y-34939D02*
X210153D01*
X189753D02*
X192353D01*
X165553D02*
X168153D01*
X148353D02*
X150953D01*
X206753Y-34739D02*
X210753D01*
X198553D02*
X199753D01*
X194553D02*
X195953D01*
X189353D02*
X192953D01*
X182153D02*
X183553D01*
X175953D02*
X177153D01*
X169953D02*
X171153D01*
X165153D02*
X168753D01*
X157153D02*
X158353D01*
X153153D02*
X154553D01*
X147953D02*
X151553D01*
X142953D02*
X144153D01*
X136353D02*
X137753D01*
X206353Y-34539D02*
X211153D01*
X198553D02*
X199753D01*
X194553D02*
X195953D01*
X188953D02*
X193353D01*
X182153D02*
X183553D01*
X175753D02*
X177153D01*
X169953D02*
X171153D01*
X164753D02*
X169153D01*
X157153D02*
X158353D01*
X153153D02*
X154553D01*
X147553D02*
X151953D01*
X142953D02*
X144153D01*
X136353D02*
X137753D01*
X206153Y-34339D02*
X211353D01*
X198553D02*
X199753D01*
X194553D02*
X195953D01*
X188753D02*
X193753D01*
X182153D02*
X183553D01*
X175753D02*
X177353D01*
X169953D02*
X171153D01*
X164553D02*
X169353D01*
X157153D02*
X158353D01*
X153153D02*
X154553D01*
X147353D02*
X152353D01*
X142953D02*
X144153D01*
X136353D02*
X137753D01*
X205753Y-34139D02*
X211553D01*
X198553D02*
X199753D01*
X194553D02*
X195953D01*
X188553D02*
X193953D01*
X181953D02*
X183553D01*
X175753D02*
X177353D01*
X169953D02*
X171153D01*
X164353D02*
X169553D01*
X157153D02*
X158353D01*
X153153D02*
X154553D01*
X147153D02*
X152553D01*
X142953D02*
X144153D01*
X136353D02*
X137753D01*
X208953Y-33939D02*
X211753D01*
X205553D02*
X208553D01*
X198553D02*
X199753D01*
X194353D02*
X195753D01*
X188353D02*
X194153D01*
X181953D02*
X183753D01*
X175753D02*
X177353D01*
X169953D02*
X171153D01*
X164153D02*
X169753D01*
X157153D02*
X158353D01*
X152953D02*
X154353D01*
X146953D02*
X152753D01*
X142953D02*
X144153D01*
X136353D02*
X137753D01*
X209953Y-33739D02*
X211953D01*
X205353D02*
X207553D01*
X198553D02*
X199753D01*
X192353D02*
X195753D01*
X188153D02*
X190353D01*
X181953D02*
X183753D01*
X175553D02*
X177553D01*
X168153D02*
X171153D01*
X163953D02*
X166153D01*
X157153D02*
X158353D01*
X150953D02*
X154353D01*
X146753D02*
X148953D01*
X142953D02*
X144153D01*
X136353D02*
X137753D01*
X210353Y-33539D02*
X212153D01*
X205153D02*
X207153D01*
X198553D02*
X199753D01*
X192753D02*
X195753D01*
X187953D02*
X189953D01*
X181753D02*
X183753D01*
X175553D02*
X177553D01*
X168553D02*
X171153D01*
X163753D02*
X165753D01*
X157153D02*
X158353D01*
X151353D02*
X154353D01*
X146553D02*
X148553D01*
X142953D02*
X144153D01*
X136353D02*
X137753D01*
X210753Y-33339D02*
X212353D01*
X205153D02*
X206953D01*
X198553D02*
X199753D01*
X193153D02*
X195753D01*
X187953D02*
X189753D01*
X181753D02*
X183953D01*
X175553D02*
X177553D01*
X168953D02*
X171153D01*
X163753D02*
X165353D01*
X157153D02*
X158353D01*
X151753D02*
X154353D01*
X146553D02*
X148353D01*
X142953D02*
X144153D01*
X136353D02*
X137753D01*
X210953Y-33139D02*
X212353D01*
X204953D02*
X206753D01*
X198553D02*
X199753D01*
X193353D02*
X195753D01*
X187953D02*
X189553D01*
X181753D02*
X183953D01*
X175353D02*
X177753D01*
X169153D02*
X171153D01*
X163553D02*
X165153D01*
X157153D02*
X158353D01*
X151953D02*
X154353D01*
X146553D02*
X148153D01*
X142953D02*
X144153D01*
X136353D02*
X137753D01*
X211153Y-32939D02*
X212153D01*
X204753D02*
X206553D01*
X198553D02*
X199753D01*
X193753D02*
X195753D01*
X187753D02*
X189353D01*
X181553D02*
X183953D01*
X175353D02*
X177753D01*
X169353D02*
X171153D01*
X163553D02*
X164953D01*
X157153D02*
X158353D01*
X152353D02*
X154353D01*
X146353D02*
X147953D01*
X142953D02*
X144153D01*
X136353D02*
X137753D01*
X211353Y-32739D02*
X211953D01*
X204753D02*
X206353D01*
X198553D02*
X199753D01*
X193953D02*
X195753D01*
X187753D02*
X189153D01*
X181553D02*
X183953D01*
X175353D02*
X177753D01*
X169553D02*
X171153D01*
X163353D02*
X164953D01*
X157153D02*
X158353D01*
X152553D02*
X154353D01*
X146353D02*
X147753D01*
X142953D02*
X144153D01*
X136353D02*
X137753D01*
X204553Y-32539D02*
X206153D01*
X198553D02*
X199753D01*
X193953D02*
X195753D01*
X187753D02*
X189153D01*
X182953D02*
X184153D01*
X181553D02*
X182753D01*
X175353D02*
X177953D01*
X169553D02*
X171153D01*
X163353D02*
X164753D01*
X157153D02*
X158353D01*
X152553D02*
X154353D01*
X146353D02*
X147753D01*
X142953D02*
X144153D01*
X136353D02*
X137753D01*
X204553Y-32339D02*
X205953D01*
X198553D02*
X199753D01*
X194153D02*
X195753D01*
X187753D02*
X189153D01*
X182953D02*
X184153D01*
X181353D02*
X182753D01*
X176753D02*
X177953D01*
X175153D02*
X176553D01*
X169753D02*
X171153D01*
X163153D02*
X164753D01*
X157153D02*
X158353D01*
X152753D02*
X154353D01*
X146353D02*
X147753D01*
X142953D02*
X144153D01*
X136353D02*
X137753D01*
X204353Y-32139D02*
X205953D01*
X198553D02*
X199753D01*
X194353D02*
X195753D01*
X187753D02*
X189153D01*
X182953D02*
X184153D01*
X181353D02*
X182553D01*
X176753D02*
X177953D01*
X175153D02*
X176353D01*
X169753D02*
X171153D01*
X163153D02*
X164553D01*
X157153D02*
X158353D01*
X152953D02*
X154353D01*
X146353D02*
X147753D01*
X142953D02*
X144153D01*
X136353D02*
X137753D01*
X204353Y-31939D02*
X205753D01*
X198553D02*
X199753D01*
X194353D02*
X195753D01*
X187753D02*
X189153D01*
X182953D02*
X184353D01*
X181353D02*
X182553D01*
X176753D02*
X177953D01*
X175153D02*
X176353D01*
X169953D02*
X171153D01*
X163153D02*
X164553D01*
X157153D02*
X158353D01*
X152953D02*
X154353D01*
X146353D02*
X147753D01*
X142953D02*
X144153D01*
X136353D02*
X137753D01*
X204353Y-31739D02*
X205753D01*
X198553D02*
X199753D01*
X194353D02*
X195753D01*
X187753D02*
X189153D01*
X183153D02*
X184353D01*
X181153D02*
X182553D01*
X176953D02*
X178153D01*
X174953D02*
X176353D01*
X169953D02*
X171153D01*
X162953D02*
X164353D01*
X157153D02*
X158353D01*
X152953D02*
X154353D01*
X146353D02*
X147753D01*
X142953D02*
X144153D01*
X136353D02*
X137753D01*
X204153Y-31539D02*
X205553D01*
X198553D02*
X199753D01*
X194353D02*
X195753D01*
X187753D02*
X189153D01*
X183153D02*
X184353D01*
X181153D02*
X182353D01*
X176953D02*
X178153D01*
X174953D02*
X176353D01*
X169953D02*
X171153D01*
X162953D02*
X164353D01*
X157153D02*
X158353D01*
X152953D02*
X154353D01*
X146353D02*
X147753D01*
X142953D02*
X144153D01*
X136353D02*
X137753D01*
X204153Y-31339D02*
X205553D01*
X198553D02*
X199753D01*
X194353D02*
X195753D01*
X187753D02*
X189153D01*
X183153D02*
X184553D01*
X181153D02*
X182353D01*
X176953D02*
X178153D01*
X174953D02*
X176153D01*
X169953D02*
X171153D01*
X162953D02*
X164353D01*
X157153D02*
X158353D01*
X152953D02*
X154353D01*
X146353D02*
X147753D01*
X142953D02*
X144153D01*
X136353D02*
X137753D01*
X204153Y-31139D02*
X205553D01*
X198553D02*
X199753D01*
X194353D02*
X195753D01*
X187953D02*
X189353D01*
X183353D02*
X184553D01*
X180953D02*
X182353D01*
X177153D02*
X178353D01*
X174953D02*
X176153D01*
X169953D02*
X171153D01*
X162953D02*
X164353D01*
X157153D02*
X158353D01*
X152953D02*
X154353D01*
X146553D02*
X147953D01*
X142953D02*
X144153D01*
X136353D02*
X137753D01*
X204153Y-30939D02*
X205553D01*
X198553D02*
X199753D01*
X194353D02*
X195753D01*
X187953D02*
X189553D01*
X183353D02*
X184553D01*
X180953D02*
X182153D01*
X177153D02*
X178353D01*
X174753D02*
X176153D01*
X169953D02*
X171153D01*
X162953D02*
X164353D01*
X157153D02*
X158353D01*
X152953D02*
X154353D01*
X146553D02*
X148153D01*
X142953D02*
X144153D01*
X136353D02*
X137753D01*
X204153Y-30739D02*
X205353D01*
X198553D02*
X199753D01*
X194353D02*
X195753D01*
X187953D02*
X189753D01*
X183353D02*
X184553D01*
X180953D02*
X182153D01*
X177153D02*
X178353D01*
X174753D02*
X175953D01*
X169953D02*
X171153D01*
X162953D02*
X164153D01*
X157153D02*
X158353D01*
X152953D02*
X154353D01*
X146553D02*
X148353D01*
X142953D02*
X144153D01*
X136353D02*
X137753D01*
X204153Y-30539D02*
X205353D01*
X198553D02*
X199753D01*
X194353D02*
X195753D01*
X188153D02*
X189953D01*
X183353D02*
X184753D01*
X180753D02*
X182153D01*
X177353D02*
X178553D01*
X174753D02*
X175953D01*
X169953D02*
X171153D01*
X162953D02*
X164153D01*
X157153D02*
X158353D01*
X152953D02*
X154353D01*
X146753D02*
X148553D01*
X142953D02*
X144153D01*
X136353D02*
X137753D01*
X204153Y-30339D02*
X205353D01*
X198553D02*
X199753D01*
X194353D02*
X195753D01*
X188353D02*
X190353D01*
X183553D02*
X184753D01*
X180753D02*
X181953D01*
X177353D02*
X178553D01*
X174553D02*
X175953D01*
X169953D02*
X171153D01*
X162953D02*
X164153D01*
X157153D02*
X158353D01*
X152953D02*
X154353D01*
X146953D02*
X148953D01*
X142953D02*
X144153D01*
X136353D02*
X137753D01*
X204153Y-30139D02*
X205353D01*
X198553D02*
X199753D01*
X194353D02*
X195753D01*
X188553D02*
X190953D01*
X183553D02*
X184753D01*
X180753D02*
X181953D01*
X177353D02*
X178553D01*
X174553D02*
X175953D01*
X169953D02*
X171153D01*
X162953D02*
X164153D01*
X157153D02*
X158353D01*
X152953D02*
X154353D01*
X147153D02*
X149553D01*
X142953D02*
X144153D01*
X136353D02*
X137753D01*
X204153Y-29939D02*
X212553D01*
X198553D02*
X199753D01*
X194353D02*
X195753D01*
X188753D02*
X191953D01*
X183553D02*
X184953D01*
X180753D02*
X181953D01*
X177353D02*
X178753D01*
X174553D02*
X175753D01*
X169953D02*
X171153D01*
X162953D02*
X164153D01*
X157153D02*
X158353D01*
X152953D02*
X154353D01*
X147353D02*
X150553D01*
X142953D02*
X144153D01*
X136353D02*
X137753D01*
X204153Y-29739D02*
X212553D01*
X198553D02*
X199753D01*
X188953D02*
X195753D01*
X183553D02*
X184953D01*
X180553D02*
X181953D01*
X177553D02*
X178753D01*
X174353D02*
X175753D01*
X169953D02*
X171153D01*
X162953D02*
X164153D01*
X157153D02*
X158353D01*
X147553D02*
X154353D01*
X142953D02*
X144153D01*
X136353D02*
X137753D01*
X204153Y-29539D02*
X212553D01*
X198553D02*
X199753D01*
X189153D02*
X195753D01*
X183753D02*
X184953D01*
X180553D02*
X181753D01*
X177553D02*
X178753D01*
X174353D02*
X175753D01*
X169953D02*
X171153D01*
X162953D02*
X164153D01*
X157153D02*
X158353D01*
X147753D02*
X154353D01*
X142953D02*
X144153D01*
X136353D02*
X137753D01*
X204153Y-29339D02*
X212553D01*
X198553D02*
X199753D01*
X189553D02*
X195753D01*
X183753D02*
X184953D01*
X180553D02*
X181753D01*
X177553D02*
X178953D01*
X174353D02*
X175753D01*
X169953D02*
X171153D01*
X162953D02*
X164153D01*
X157153D02*
X158353D01*
X148153D02*
X154353D01*
X142953D02*
X144153D01*
X136353D02*
X137753D01*
X204153Y-29139D02*
X212553D01*
X198553D02*
X199753D01*
X190153D02*
X195753D01*
X183753D02*
X185153D01*
X180353D02*
X181753D01*
X177753D02*
X178953D01*
X174353D02*
X175553D01*
X169953D02*
X171153D01*
X162953D02*
X164153D01*
X157153D02*
X158353D01*
X148753D02*
X154353D01*
X142953D02*
X144153D01*
X136353D02*
X137753D01*
X204153Y-28939D02*
X212553D01*
X198553D02*
X199753D01*
X191153D02*
X195753D01*
X183753D02*
X185153D01*
X180353D02*
X181553D01*
X177753D02*
X178953D01*
X174153D02*
X175553D01*
X169953D02*
X171153D01*
X162953D02*
X164153D01*
X157153D02*
X158353D01*
X149753D02*
X154353D01*
X142953D02*
X144153D01*
X136353D02*
X137753D01*
X211353Y-28739D02*
X212553D01*
X204153D02*
X205553D01*
X198553D02*
X199753D01*
X194353D02*
X195753D01*
X183953D02*
X185153D01*
X180353D02*
X181553D01*
X177753D02*
X179153D01*
X174153D02*
X175553D01*
X169953D02*
X171153D01*
X162953D02*
X164353D01*
X157153D02*
X158353D01*
X152953D02*
X154353D01*
X142953D02*
X144153D01*
X136353D02*
X137753D01*
X211153Y-28539D02*
X212553D01*
X204153D02*
X205553D01*
X198553D02*
X199753D01*
X194353D02*
X195753D01*
X183953D02*
X185353D01*
X180153D02*
X181553D01*
X177953D02*
X179153D01*
X174153D02*
X175353D01*
X169953D02*
X171153D01*
X162953D02*
X164353D01*
X157153D02*
X158353D01*
X152953D02*
X154353D01*
X142953D02*
X144153D01*
X136353D02*
X137753D01*
X211153Y-28339D02*
X212553D01*
X204153D02*
X205553D01*
X198553D02*
X199753D01*
X194353D02*
X195753D01*
X183953D02*
X185353D01*
X180153D02*
X181353D01*
X177953D02*
X179153D01*
X173953D02*
X175353D01*
X169953D02*
X171153D01*
X162953D02*
X164353D01*
X157153D02*
X158353D01*
X152953D02*
X154353D01*
X142953D02*
X144153D01*
X136353D02*
X137753D01*
X211153Y-28139D02*
X212553D01*
X204153D02*
X205553D01*
X198553D02*
X199753D01*
X194353D02*
X195753D01*
X184153D02*
X185353D01*
X180153D02*
X181353D01*
X177953D02*
X179353D01*
X173953D02*
X175353D01*
X169953D02*
X171153D01*
X162953D02*
X164353D01*
X157153D02*
X158353D01*
X152953D02*
X154353D01*
X142953D02*
X144153D01*
X136353D02*
X137753D01*
X211153Y-27939D02*
X212553D01*
X204353D02*
X205753D01*
X198553D02*
X199753D01*
X194353D02*
X195753D01*
X184153D02*
X185353D01*
X179953D02*
X181353D01*
X178153D02*
X179353D01*
X173953D02*
X175353D01*
X169953D02*
X171153D01*
X162953D02*
X164353D01*
X157153D02*
X158353D01*
X152953D02*
X154353D01*
X142953D02*
X144153D01*
X136353D02*
X137753D01*
X211153Y-27739D02*
X212353D01*
X204353D02*
X205753D01*
X198553D02*
X199953D01*
X194353D02*
X195753D01*
X184153D02*
X185553D01*
X179953D02*
X181153D01*
X178153D02*
X179353D01*
X173953D02*
X175153D01*
X169953D02*
X171153D01*
X162953D02*
X164553D01*
X157153D02*
X158553D01*
X152953D02*
X154353D01*
X142953D02*
X144153D01*
X136353D02*
X137753D01*
X210953Y-27539D02*
X212353D01*
X204353D02*
X205753D01*
X198553D02*
X199953D01*
X194353D02*
X195753D01*
X187953D02*
X189353D01*
X184153D02*
X185553D01*
X179953D02*
X181153D01*
X178153D02*
X179353D01*
X173753D02*
X175153D01*
X169753D02*
X171153D01*
X163153D02*
X164553D01*
X157153D02*
X158553D01*
X152953D02*
X154353D01*
X146553D02*
X147953D01*
X142753D02*
X144153D01*
X136353D02*
X137953D01*
X210953Y-27339D02*
X212353D01*
X204553D02*
X205953D01*
X198553D02*
X199953D01*
X194353D02*
X195753D01*
X187953D02*
X189353D01*
X184353D02*
X185553D01*
X179753D02*
X181153D01*
X178353D02*
X179553D01*
X173753D02*
X175153D01*
X169753D02*
X171153D01*
X163153D02*
X164553D01*
X157153D02*
X158553D01*
X152953D02*
X154353D01*
X146553D02*
X147953D01*
X142753D02*
X144153D01*
X136353D02*
X137953D01*
X210953Y-27139D02*
X212353D01*
X204553D02*
X205953D01*
X198553D02*
X200153D01*
X194353D02*
X195753D01*
X187953D02*
X189353D01*
X184353D02*
X185753D01*
X179753D02*
X180953D01*
X178353D02*
X179553D01*
X173753D02*
X175153D01*
X169553D02*
X171153D01*
X163153D02*
X164753D01*
X157153D02*
X158753D01*
X152953D02*
X154353D01*
X146553D02*
X147953D01*
X142753D02*
X144153D01*
X136353D02*
X138153D01*
X210753Y-26939D02*
X212153D01*
X204753D02*
X206153D01*
X198553D02*
X200153D01*
X194153D02*
X195553D01*
X187953D02*
X189353D01*
X184353D02*
X185753D01*
X179753D02*
X180953D01*
X178353D02*
X179553D01*
X173553D02*
X174953D01*
X169553D02*
X171153D01*
X163353D02*
X164753D01*
X157153D02*
X158753D01*
X152753D02*
X154153D01*
X146553D02*
X147953D01*
X142753D02*
X144153D01*
X136353D02*
X138353D01*
X210553Y-26739D02*
X212153D01*
X204753D02*
X206353D01*
X198553D02*
X200353D01*
X194153D02*
X195553D01*
X188153D02*
X189553D01*
X184353D02*
X185753D01*
X178553D02*
X180953D01*
X173553D02*
X174953D01*
X169353D02*
X171153D01*
X163353D02*
X164953D01*
X157153D02*
X158953D01*
X152753D02*
X154153D01*
X146753D02*
X148153D01*
X142553D02*
X143953D01*
X136353D02*
X138353D01*
X210553Y-26539D02*
X212153D01*
X204953D02*
X206553D01*
X198553D02*
X200553D01*
X193953D02*
X195553D01*
X188153D02*
X189753D01*
X184553D02*
X185953D01*
X178553D02*
X180953D01*
X173553D02*
X174953D01*
X169153D02*
X171153D01*
X163553D02*
X165153D01*
X157153D02*
X159153D01*
X152553D02*
X154153D01*
X146753D02*
X148353D01*
X142553D02*
X143953D01*
X136353D02*
X138553D01*
X210353Y-26339D02*
X211953D01*
X204953D02*
X206753D01*
X198553D02*
X200753D01*
X193953D02*
X195353D01*
X188153D02*
X189953D01*
X184553D02*
X185953D01*
X178553D02*
X180753D01*
X173553D02*
X174753D01*
X168953D02*
X171153D01*
X163553D02*
X165353D01*
X157153D02*
X159353D01*
X152553D02*
X153953D01*
X146753D02*
X148553D01*
X142353D02*
X143953D01*
X136353D02*
X138753D01*
X210153Y-26139D02*
X211753D01*
X205153D02*
X206953D01*
X198553D02*
X200953D01*
X193553D02*
X195353D01*
X188353D02*
X190153D01*
X184553D02*
X185953D01*
X178553D02*
X180753D01*
X173353D02*
X174753D01*
X168753D02*
X171153D01*
X163753D02*
X165553D01*
X157153D02*
X159553D01*
X152153D02*
X153953D01*
X146953D02*
X148753D01*
X142153D02*
X143953D01*
X136353D02*
X139153D01*
X209753Y-25939D02*
X211753D01*
X205353D02*
X207153D01*
X198553D02*
X201353D01*
X193353D02*
X195153D01*
X188553D02*
X190353D01*
X184553D02*
X185953D01*
X178753D02*
X180753D01*
X173353D02*
X174753D01*
X168353D02*
X171153D01*
X163753D02*
X165753D01*
X157153D02*
X159953D01*
X151953D02*
X153753D01*
X147153D02*
X148953D01*
X141953D02*
X143753D01*
X136353D02*
X139353D01*
X209353Y-25739D02*
X211553D01*
X205553D02*
X207753D01*
X202753D02*
X203353D01*
X199953D02*
X202153D01*
X198553D02*
X199753D01*
X192953D02*
X195153D01*
X188753D02*
X190953D01*
X184753D02*
X186153D01*
X178753D02*
X180553D01*
X173353D02*
X174753D01*
X169953D02*
X171153D01*
X167953D02*
X169753D01*
X163953D02*
X166353D01*
X161353D02*
X161953D01*
X158553D02*
X160753D01*
X157153D02*
X158353D01*
X151553D02*
X153753D01*
X147353D02*
X149553D01*
X141353D02*
X143753D01*
X137953D02*
X139953D01*
X136353D02*
X137753D01*
X205753Y-25539D02*
X211353D01*
X199953D02*
X203353D01*
X198553D02*
X199753D01*
X188953D02*
X194953D01*
X184753D02*
X186153D01*
X178753D02*
X180553D01*
X173153D02*
X174553D01*
X169953D02*
X171153D01*
X164153D02*
X169553D01*
X158553D02*
X161953D01*
X157153D02*
X158353D01*
X147553D02*
X153553D01*
X138153D02*
X143553D01*
X136353D02*
X137753D01*
X205953Y-25339D02*
X211153D01*
X200153D02*
X203353D01*
X198553D02*
X199753D01*
X189153D02*
X194753D01*
X184753D02*
X186153D01*
X178953D02*
X180553D01*
X173153D02*
X174553D01*
X169953D02*
X171153D01*
X164353D02*
X169353D01*
X158753D02*
X161953D01*
X157153D02*
X158353D01*
X147753D02*
X153353D01*
X138353D02*
X143353D01*
X136353D02*
X137753D01*
X206153Y-25139D02*
X210953D01*
X200353D02*
X203353D01*
X198553D02*
X199753D01*
X189353D02*
X194553D01*
X184953D02*
X186353D01*
X178953D02*
X180353D01*
X173153D02*
X174553D01*
X169953D02*
X171153D01*
X164553D02*
X169153D01*
X158953D02*
X161953D01*
X157153D02*
X158353D01*
X147953D02*
X153153D01*
X138553D02*
X143153D01*
X136353D02*
X137753D01*
X206553Y-24939D02*
X210553D01*
X200753D02*
X203353D01*
X198553D02*
X199753D01*
X189753D02*
X194153D01*
X184953D02*
X186353D01*
X178953D02*
X180353D01*
X173153D02*
X174553D01*
X169953D02*
X171153D01*
X164953D02*
X168953D01*
X159353D02*
X161953D01*
X157153D02*
X158353D01*
X148353D02*
X152753D01*
X138953D02*
X142953D01*
X136353D02*
X137753D01*
X206953Y-24739D02*
X210153D01*
X200953D02*
X203353D01*
X198553D02*
X199753D01*
X190153D02*
X193753D01*
X184953D02*
X186353D01*
X179153D02*
X180353D01*
X172953D02*
X174353D01*
X169953D02*
X171153D01*
X165353D02*
X168553D01*
X159553D02*
X161953D01*
X157153D02*
X158353D01*
X148753D02*
X152353D01*
X139353D02*
X142553D01*
X136353D02*
X137753D01*
X207553Y-24539D02*
X209553D01*
X201553D02*
X203353D01*
X190953D02*
X192953D01*
X169953D02*
X171153D01*
X165953D02*
X167753D01*
X160153D02*
X161953D01*
X149553D02*
X151553D01*
X139953D02*
X141953D01*
X136353D02*
X137753D01*
X169953Y-24339D02*
X171153D01*
X136353D02*
X137753D01*
X169953Y-24139D02*
X171153D01*
X136353D02*
X137753D01*
X169953Y-23939D02*
X171153D01*
X136353D02*
X137753D01*
X169953Y-23739D02*
X171153D01*
X136353D02*
X137753D01*
X169953Y-23539D02*
X171153D01*
X136353D02*
X137753D01*
X169953Y-23339D02*
X171153D01*
X136353D02*
X137753D01*
X169953Y-23139D02*
X171153D01*
X136353D02*
X137753D01*
X169953Y-22939D02*
X171153D01*
X136353D02*
X137753D01*
X169953Y-22739D02*
X171153D01*
X136353D02*
X137753D01*
X169953Y-22539D02*
X171153D01*
X136353D02*
X137753D01*
X169953Y-22339D02*
X171153D01*
X136353D02*
X137753D01*
X169953Y-22139D02*
X171153D01*
X136353D02*
X137753D01*
X169953Y-21939D02*
X171153D01*
X136353D02*
X137753D01*
X169953Y-21739D02*
X171153D01*
X136353D02*
X137753D01*
X169953Y-21539D02*
X171153D01*
X136353D02*
X137753D01*
X169953Y-21339D02*
X171153D01*
X136353D02*
X137753D01*
X169953Y-21139D02*
X171153D01*
X136353D02*
X137753D01*
X169953Y-20939D02*
X171153D01*
X136353D02*
X137753D01*
X169953Y-20739D02*
X171153D01*
X136353D02*
X137753D01*
X169953Y-20539D02*
X171153D01*
X136353D02*
X137753D01*
X197553Y-17339D02*
X198953D01*
X188153D02*
X189353D01*
X176953D02*
X178153D01*
X167153D02*
X168553D01*
X156953D02*
X158153D01*
X145953D02*
X147353D01*
X196553Y-17139D02*
X199953D01*
X187153D02*
X190153D01*
X180753D02*
X182153D01*
X176153D02*
X178753D01*
X166353D02*
X169353D01*
X156153D02*
X159153D01*
X153353D02*
X154553D01*
X144953D02*
X148153D01*
X136353D02*
X137753D01*
X195953Y-16939D02*
X200553D01*
X186753D02*
X190753D01*
X180753D02*
X182153D01*
X175953D02*
X178753D01*
X165753D02*
X169953D01*
X155553D02*
X159553D01*
X153353D02*
X154553D01*
X144553D02*
X148753D01*
X136353D02*
X137753D01*
X195553Y-16739D02*
X200953D01*
X186353D02*
X191153D01*
X180753D02*
X182153D01*
X175753D02*
X178753D01*
X165353D02*
X170353D01*
X155353D02*
X159753D01*
X153353D02*
X154553D01*
X144153D02*
X148953D01*
X136353D02*
X137753D01*
X195353Y-16539D02*
X201153D01*
X186153D02*
X191353D01*
X180753D02*
X182153D01*
X175553D02*
X178753D01*
X165153D02*
X170553D01*
X154953D02*
X160153D01*
X153353D02*
X154553D01*
X143953D02*
X149353D01*
X136353D02*
X137753D01*
X195153Y-16339D02*
X201353D01*
X185753D02*
X191553D01*
X180753D02*
X182153D01*
X175353D02*
X178753D01*
X164953D02*
X170753D01*
X154753D02*
X160353D01*
X153353D02*
X154553D01*
X143553D02*
X149553D01*
X136353D02*
X137753D01*
X199153Y-16139D02*
X201553D01*
X194953D02*
X197553D01*
X189553D02*
X191753D01*
X185553D02*
X187953D01*
X180753D02*
X182153D01*
X178153D02*
X178753D01*
X175353D02*
X177353D01*
X168553D02*
X170953D01*
X164753D02*
X167153D01*
X157953D02*
X160353D01*
X153353D02*
X156753D01*
X147353D02*
X149753D01*
X143353D02*
X145953D01*
X136353D02*
X137753D01*
X199753Y-15939D02*
X201753D01*
X194753D02*
X196753D01*
X189953D02*
X191953D01*
X185553D02*
X187553D01*
X180753D02*
X182153D01*
X175353D02*
X176953D01*
X169153D02*
X171153D01*
X164553D02*
X166553D01*
X158553D02*
X160553D01*
X153353D02*
X156153D01*
X147953D02*
X149953D01*
X143153D02*
X145353D01*
X136353D02*
X137753D01*
X199953Y-15739D02*
X201753D01*
X194553D02*
X196553D01*
X190353D02*
X192153D01*
X185353D02*
X187153D01*
X180753D02*
X182153D01*
X175153D02*
X176753D01*
X169553D02*
X171353D01*
X164353D02*
X166153D01*
X158953D02*
X160753D01*
X153353D02*
X155753D01*
X148153D02*
X150153D01*
X143153D02*
X144953D01*
X136353D02*
X137753D01*
X200353Y-15539D02*
X201953D01*
X194553D02*
X196153D01*
X190553D02*
X192353D01*
X185153D02*
X186953D01*
X180753D02*
X182153D01*
X175153D02*
X176553D01*
X169753D02*
X171553D01*
X164153D02*
X165953D01*
X159153D02*
X160953D01*
X153353D02*
X155553D01*
X148553D02*
X150353D01*
X142953D02*
X144753D01*
X136353D02*
X137753D01*
X200553Y-15339D02*
X201953D01*
X194353D02*
X195953D01*
X190753D02*
X192353D01*
X185153D02*
X186753D01*
X180753D02*
X182153D01*
X175153D02*
X176553D01*
X169953D02*
X171753D01*
X163953D02*
X165753D01*
X159353D02*
X160953D01*
X153353D02*
X155353D01*
X148753D02*
X150353D01*
X142753D02*
X144553D01*
X136353D02*
X137753D01*
X200553Y-15139D02*
X201953D01*
X194353D02*
X195953D01*
X190953D02*
X192553D01*
X184953D02*
X186553D01*
X180753D02*
X182153D01*
X175153D02*
X176553D01*
X170153D02*
X171753D01*
X163953D02*
X165553D01*
X159553D02*
X161153D01*
X153353D02*
X155153D01*
X148953D02*
X150553D01*
X142753D02*
X144353D01*
X136353D02*
X137753D01*
X200753Y-14939D02*
X202153D01*
X194353D02*
X195753D01*
X191153D02*
X192553D01*
X184953D02*
X186353D01*
X180753D02*
X182153D01*
X175153D02*
X176553D01*
X170353D02*
X171953D01*
X163753D02*
X165353D01*
X159553D02*
X161153D01*
X153353D02*
X154953D01*
X149153D02*
X150553D01*
X142553D02*
X144153D01*
X136353D02*
X137753D01*
X200753Y-14739D02*
X202153D01*
X194353D02*
X195753D01*
X191153D02*
X192553D01*
X184753D02*
X186153D01*
X180753D02*
X182153D01*
X175153D02*
X176553D01*
X170353D02*
X171953D01*
X163753D02*
X165353D01*
X159753D02*
X161153D01*
X153353D02*
X154753D01*
X149153D02*
X150753D01*
X142553D02*
X143953D01*
X136353D02*
X137753D01*
X200753Y-14539D02*
X202153D01*
X194153D02*
X195553D01*
X191353D02*
X192753D01*
X184753D02*
X186153D01*
X180753D02*
X182153D01*
X175153D02*
X176553D01*
X170553D02*
X171953D01*
X163553D02*
X165153D01*
X159753D02*
X161353D01*
X153353D02*
X154753D01*
X149353D02*
X150753D01*
X142353D02*
X143953D01*
X136353D02*
X137753D01*
X200753Y-14339D02*
X202153D01*
X194153D02*
X195553D01*
X191353D02*
X192753D01*
X184553D02*
X185953D01*
X180753D02*
X182153D01*
X175153D02*
X176553D01*
X170753D02*
X172153D01*
X163553D02*
X164953D01*
X159953D02*
X161353D01*
X153353D02*
X154553D01*
X149353D02*
X150953D01*
X142353D02*
X143753D01*
X136353D02*
X137753D01*
X200753Y-14139D02*
X202153D01*
X191353D02*
X192753D01*
X184553D02*
X185953D01*
X180753D02*
X182153D01*
X175153D02*
X176553D01*
X170753D02*
X172153D01*
X163553D02*
X164953D01*
X159953D02*
X161353D01*
X153353D02*
X154553D01*
X149553D02*
X150953D01*
X142353D02*
X143753D01*
X136353D02*
X137753D01*
X200553Y-13939D02*
X202153D01*
X191353D02*
X192753D01*
X184553D02*
X185953D01*
X180753D02*
X182153D01*
X175153D02*
X176553D01*
X170753D02*
X172153D01*
X163353D02*
X164953D01*
X159953D02*
X161353D01*
X153353D02*
X154553D01*
X149553D02*
X150953D01*
X142153D02*
X143553D01*
X136353D02*
X137753D01*
X200553Y-13739D02*
X201953D01*
X184553D02*
X185753D01*
X180753D02*
X182153D01*
X175153D02*
X176553D01*
X170953D02*
X172353D01*
X163353D02*
X164753D01*
X160153D02*
X161553D01*
X153353D02*
X154553D01*
X149753D02*
X150953D01*
X142153D02*
X143553D01*
X136353D02*
X137753D01*
X200353Y-13539D02*
X201953D01*
X184353D02*
X185753D01*
X180753D02*
X182153D01*
X175153D02*
X176553D01*
X170953D02*
X172353D01*
X163353D02*
X164753D01*
X160153D02*
X161553D01*
X153353D02*
X154553D01*
X149753D02*
X151153D01*
X142153D02*
X143553D01*
X136353D02*
X137753D01*
X200153Y-13339D02*
X201953D01*
X184353D02*
X185753D01*
X180753D02*
X182153D01*
X175153D02*
X176553D01*
X170953D02*
X172353D01*
X163353D02*
X164753D01*
X160153D02*
X161553D01*
X153353D02*
X154553D01*
X149753D02*
X151153D01*
X142153D02*
X143553D01*
X136353D02*
X137753D01*
X199953Y-13139D02*
X201753D01*
X184353D02*
X185753D01*
X180753D02*
X182153D01*
X175153D02*
X176553D01*
X170953D02*
X172353D01*
X163353D02*
X164553D01*
X160153D02*
X161553D01*
X153353D02*
X154553D01*
X149753D02*
X151153D01*
X142153D02*
X143353D01*
X136353D02*
X137753D01*
X199553Y-12939D02*
X201753D01*
X184353D02*
X185753D01*
X180753D02*
X182153D01*
X175153D02*
X176553D01*
X171153D02*
X172353D01*
X163353D02*
X164553D01*
X160153D02*
X161553D01*
X153353D02*
X154553D01*
X149753D02*
X151153D01*
X141953D02*
X143353D01*
X136353D02*
X137753D01*
X198953Y-12739D02*
X201553D01*
X184353D02*
X185753D01*
X180753D02*
X182153D01*
X175153D02*
X176553D01*
X171153D02*
X172353D01*
X163353D02*
X164553D01*
X160353D02*
X161553D01*
X153353D02*
X154553D01*
X149953D02*
X151153D01*
X141953D02*
X143353D01*
X136353D02*
X137753D01*
X198353Y-12539D02*
X201353D01*
X184353D02*
X185753D01*
X180753D02*
X182153D01*
X175153D02*
X176553D01*
X171153D02*
X172353D01*
X163353D02*
X164553D01*
X160353D02*
X161553D01*
X153353D02*
X154553D01*
X149953D02*
X151153D01*
X141953D02*
X143353D01*
X136353D02*
X137753D01*
X197353Y-12339D02*
X200953D01*
X184353D02*
X185753D01*
X180753D02*
X182153D01*
X175153D02*
X176553D01*
X171153D02*
X172353D01*
X163153D02*
X164553D01*
X160353D02*
X161553D01*
X153353D02*
X154553D01*
X149953D02*
X151153D01*
X141953D02*
X143353D01*
X136353D02*
X137753D01*
X196753Y-12139D02*
X200753D01*
X184353D02*
X185753D01*
X180753D02*
X182153D01*
X175153D02*
X176553D01*
X171153D02*
X172353D01*
X163153D02*
X164553D01*
X160353D02*
X161553D01*
X153353D02*
X154553D01*
X149953D02*
X151153D01*
X141953D02*
X143353D01*
X136353D02*
X137753D01*
X196153Y-11939D02*
X200353D01*
X184353D02*
X185753D01*
X180753D02*
X182153D01*
X175153D02*
X176553D01*
X171153D02*
X172353D01*
X163153D02*
X164553D01*
X160353D02*
X161553D01*
X153353D02*
X154553D01*
X149953D02*
X151153D01*
X141953D02*
X143353D01*
X136353D02*
X137753D01*
X195753Y-11739D02*
X199753D01*
X184353D02*
X185753D01*
X180753D02*
X182153D01*
X175153D02*
X176553D01*
X171153D02*
X172353D01*
X163153D02*
X164553D01*
X160353D02*
X161553D01*
X153353D02*
X154553D01*
X149953D02*
X151153D01*
X141953D02*
X143353D01*
X136353D02*
X137753D01*
X195553Y-11539D02*
X199153D01*
X184353D02*
X185753D01*
X180753D02*
X182153D01*
X175153D02*
X176553D01*
X171153D02*
X172353D01*
X163353D02*
X164553D01*
X160353D02*
X161553D01*
X153353D02*
X154553D01*
X149953D02*
X151153D01*
X141953D02*
X143353D01*
X136353D02*
X137753D01*
X195353Y-11339D02*
X198353D01*
X184353D02*
X185753D01*
X180753D02*
X182153D01*
X175153D02*
X176553D01*
X171153D02*
X172353D01*
X163353D02*
X164553D01*
X160353D02*
X161553D01*
X153353D02*
X154553D01*
X149953D02*
X151153D01*
X141953D02*
X143353D01*
X136353D02*
X137753D01*
X195153Y-11139D02*
X197553D01*
X184353D02*
X185753D01*
X180753D02*
X182153D01*
X175153D02*
X176553D01*
X171153D02*
X172353D01*
X163353D02*
X164553D01*
X160153D02*
X161553D01*
X153353D02*
X154553D01*
X149753D02*
X151153D01*
X141953D02*
X143353D01*
X136353D02*
X137753D01*
X194953Y-10939D02*
X197153D01*
X184353D02*
X185753D01*
X180753D02*
X182153D01*
X175153D02*
X176553D01*
X170953D02*
X172353D01*
X163353D02*
X164753D01*
X160153D02*
X161553D01*
X153353D02*
X154553D01*
X149753D02*
X151153D01*
X142153D02*
X143353D01*
X136353D02*
X137753D01*
X194753Y-10739D02*
X196553D01*
X184353D02*
X185753D01*
X180753D02*
X182153D01*
X175153D02*
X176553D01*
X170953D02*
X172353D01*
X163353D02*
X164753D01*
X160153D02*
X161553D01*
X153353D02*
X154553D01*
X149753D02*
X151153D01*
X142153D02*
X143553D01*
X136353D02*
X137753D01*
X194753Y-10539D02*
X196353D01*
X184353D02*
X185753D01*
X180753D02*
X182153D01*
X175153D02*
X176553D01*
X170953D02*
X172353D01*
X163353D02*
X164753D01*
X160153D02*
X161553D01*
X153353D02*
X154553D01*
X149753D02*
X151153D01*
X142153D02*
X143553D01*
X136353D02*
X137753D01*
X194553Y-10339D02*
X196153D01*
X191353D02*
X192753D01*
X184553D02*
X185953D01*
X180753D02*
X182153D01*
X175153D02*
X176553D01*
X170953D02*
X172353D01*
X163353D02*
X164753D01*
X160153D02*
X161553D01*
X153353D02*
X154553D01*
X149553D02*
X150953D01*
X142153D02*
X143553D01*
X136353D02*
X137753D01*
X194553Y-10139D02*
X195953D01*
X191353D02*
X192753D01*
X184553D02*
X185953D01*
X180753D02*
X182153D01*
X175153D02*
X176553D01*
X170753D02*
X172153D01*
X163553D02*
X164953D01*
X160153D02*
X161353D01*
X153353D02*
X154553D01*
X149553D02*
X150953D01*
X142153D02*
X143553D01*
X136353D02*
X137753D01*
X194553Y-9939D02*
X195953D01*
X191353D02*
X192753D01*
X184553D02*
X185953D01*
X180753D02*
X182153D01*
X175153D02*
X176553D01*
X170753D02*
X172153D01*
X163553D02*
X164953D01*
X159953D02*
X161353D01*
X153353D02*
X154553D01*
X149553D02*
X150953D01*
X142353D02*
X143753D01*
X136353D02*
X137753D01*
X200753Y-9739D02*
X201953D01*
X194553D02*
X195953D01*
X191353D02*
X192753D01*
X184553D02*
X186153D01*
X180753D02*
X182153D01*
X175153D02*
X176553D01*
X170553D02*
X172153D01*
X163553D02*
X165153D01*
X159953D02*
X161353D01*
X153353D02*
X154753D01*
X149353D02*
X150953D01*
X142353D02*
X143753D01*
X136353D02*
X137953D01*
X200753Y-9539D02*
X201953D01*
X194553D02*
X195953D01*
X191153D02*
X192553D01*
X184753D02*
X186153D01*
X180753D02*
X182153D01*
X175153D02*
X176553D01*
X170553D02*
X171953D01*
X163753D02*
X165153D01*
X159753D02*
X161353D01*
X153353D02*
X154753D01*
X149353D02*
X150753D01*
X142353D02*
X143953D01*
X136353D02*
X137953D01*
X200553Y-9339D02*
X201953D01*
X194553D02*
X195953D01*
X191153D02*
X192553D01*
X184753D02*
X186353D01*
X180753D02*
X182153D01*
X175153D02*
X176553D01*
X170353D02*
X171953D01*
X163753D02*
X165353D01*
X159753D02*
X161153D01*
X153353D02*
X154953D01*
X149153D02*
X150753D01*
X142553D02*
X144153D01*
X136353D02*
X138153D01*
X200553Y-9139D02*
X201953D01*
X194553D02*
X195953D01*
X190953D02*
X192553D01*
X184953D02*
X186353D01*
X180753D02*
X182153D01*
X175153D02*
X176553D01*
X170353D02*
X171953D01*
X163753D02*
X165353D01*
X159553D02*
X161153D01*
X153353D02*
X154953D01*
X148953D02*
X150553D01*
X142553D02*
X144153D01*
X136353D02*
X138153D01*
X200353Y-8939D02*
X201953D01*
X194553D02*
X195953D01*
X190953D02*
X192353D01*
X184953D02*
X186553D01*
X180753D02*
X182153D01*
X175153D02*
X176553D01*
X170153D02*
X171753D01*
X163953D02*
X165553D01*
X159553D02*
X161153D01*
X153353D02*
X155153D01*
X148953D02*
X150553D01*
X142753D02*
X144353D01*
X136353D02*
X138353D01*
X200353Y-8739D02*
X201953D01*
X194753D02*
X196153D01*
X190753D02*
X192353D01*
X185153D02*
X186753D01*
X180753D02*
X182153D01*
X175153D02*
X176553D01*
X169953D02*
X171553D01*
X164153D02*
X165753D01*
X159353D02*
X160953D01*
X153353D02*
X155353D01*
X148753D02*
X150353D01*
X142753D02*
X144553D01*
X136353D02*
X138553D01*
X200153Y-8539D02*
X201753D01*
X194753D02*
X196353D01*
X190553D02*
X192153D01*
X185153D02*
X186953D01*
X180753D02*
X182153D01*
X175153D02*
X176553D01*
X169753D02*
X171553D01*
X164153D02*
X165953D01*
X159153D02*
X160953D01*
X153353D02*
X155553D01*
X148553D02*
X150353D01*
X142953D02*
X144753D01*
X136353D02*
X138753D01*
X199753Y-8339D02*
X201753D01*
X194753D02*
X196553D01*
X190353D02*
X192153D01*
X185353D02*
X187153D01*
X180753D02*
X182153D01*
X175153D02*
X176553D01*
X169353D02*
X171353D01*
X164353D02*
X166353D01*
X158953D02*
X160753D01*
X153353D02*
X155753D01*
X148153D02*
X150153D01*
X143153D02*
X144953D01*
X136353D02*
X139153D01*
X199353Y-8139D02*
X201553D01*
X194953D02*
X196953D01*
X189953D02*
X191953D01*
X185553D02*
X187553D01*
X180753D02*
X182153D01*
X175153D02*
X176553D01*
X168953D02*
X171153D01*
X164553D02*
X166553D01*
X158553D02*
X160553D01*
X153353D02*
X156153D01*
X147753D02*
X149953D01*
X143353D02*
X145353D01*
X136353D02*
X139553D01*
X198753Y-7939D02*
X201353D01*
X195153D02*
X197553D01*
X189353D02*
X191753D01*
X185753D02*
X188153D01*
X180753D02*
X182153D01*
X173353D02*
X178553D01*
X168353D02*
X170953D01*
X164753D02*
X167353D01*
X157953D02*
X160353D01*
X154753D02*
X156953D01*
X153353D02*
X154553D01*
X147153D02*
X149753D01*
X143553D02*
X145953D01*
X137953D02*
X141353D01*
X136353D02*
X137753D01*
X195353Y-7739D02*
X201153D01*
X185953D02*
X191553D01*
X180753D02*
X182153D01*
X173353D02*
X178553D01*
X164953D02*
X170753D01*
X154953D02*
X160353D01*
X153353D02*
X154553D01*
X143753D02*
X149553D01*
X137953D02*
X141353D01*
X136353D02*
X137753D01*
X195553Y-7539D02*
X200953D01*
X186153D02*
X191353D01*
X180753D02*
X182153D01*
X173353D02*
X178553D01*
X165153D02*
X170553D01*
X155153D02*
X160153D01*
X153353D02*
X154553D01*
X143953D02*
X149353D01*
X138153D02*
X141353D01*
X136353D02*
X137753D01*
X195753Y-7339D02*
X200753D01*
X186353D02*
X191153D01*
X180753D02*
X182153D01*
X173353D02*
X178553D01*
X165553D02*
X170153D01*
X155353D02*
X159753D01*
X153353D02*
X154553D01*
X144153D02*
X148953D01*
X138353D02*
X141353D01*
X136353D02*
X137753D01*
X196153Y-7139D02*
X200353D01*
X186753D02*
X190753D01*
X180753D02*
X182153D01*
X173353D02*
X178553D01*
X165753D02*
X169953D01*
X155753D02*
X159553D01*
X153353D02*
X154553D01*
X144553D02*
X148553D01*
X138753D02*
X141353D01*
X136353D02*
X137753D01*
X196553Y-6939D02*
X199753D01*
X187153D02*
X190353D01*
X180753D02*
X182153D01*
X173353D02*
X178553D01*
X166353D02*
X169353D01*
X156153D02*
X158953D01*
X153353D02*
X154553D01*
X145153D02*
X148153D01*
X139153D02*
X141353D01*
X136353D02*
X137753D01*
X197753Y-6739D02*
X198753D01*
X188353D02*
X189153D01*
X175153D02*
X176553D01*
X167353D02*
X168353D01*
X157153D02*
X158153D01*
X153353D02*
X154553D01*
X146153D02*
X147153D01*
X139953D02*
X140753D01*
X175153Y-6539D02*
X176553D01*
X153353D02*
X154553D01*
X175153Y-6339D02*
X176553D01*
X153353D02*
X154553D01*
X175153Y-6139D02*
X176553D01*
X153353D02*
X154553D01*
X175153Y-5939D02*
X176553D01*
X153353D02*
X154553D01*
X175153Y-5739D02*
X176553D01*
X153353D02*
X154553D01*
X175153Y-5539D02*
X176553D01*
X153353D02*
X154553D01*
X175153Y-5339D02*
X176553D01*
X153353D02*
X154553D01*
X175153Y-5139D02*
X176553D01*
X153353D02*
X154553D01*
X181153Y-4939D02*
X181753D01*
X175153D02*
X176553D01*
X153353D02*
X154553D01*
X180753Y-4739D02*
X182153D01*
X175153D02*
X176553D01*
X153353D02*
X154553D01*
X180753Y-4539D02*
X182353D01*
X175153D02*
X176553D01*
X153353D02*
X154553D01*
X180553Y-4339D02*
X182353D01*
X175153D02*
X176553D01*
X153353D02*
X154553D01*
X180553Y-4139D02*
X182353D01*
X153353D02*
X154553D01*
X180553Y-3939D02*
X182353D01*
X153353D02*
X154553D01*
X180553Y-3739D02*
X182353D01*
X153353D02*
X154553D01*
X180753Y-3539D02*
X182153D01*
X153353D02*
X154553D01*
X180953Y-3339D02*
X181953D01*
X153353D02*
X154553D01*
X153353Y-3139D02*
X154553D01*
X153353Y-2939D02*
X154553D01*
X153353Y-2739D02*
X154553D01*
D15*
X26016Y-40130D02*
X26124D01*
X24905D02*
X26016D01*
X26124D02*
X28839Y-42844D01*
Y-48130D02*
Y-42844D01*
X25591Y-57087D02*
X31102D01*
X28740Y-59449D02*
X31102Y-57087D01*
X28740Y-66142D02*
Y-59449D01*
X46526Y-23179D02*
X51821D01*
X37750Y-34646D02*
X37767Y-34628D01*
X28508Y-30012D02*
X35476D01*
X37767Y-32303D01*
Y-34628D02*
Y-32303D01*
X37220Y-13961D02*
Y-12636D01*
X32980Y-18201D02*
X37220Y-13961D01*
Y-12636D02*
X37750Y-12106D01*
X28508Y-18201D02*
X32980D01*
X82396Y-40931D02*
X84752Y-43287D01*
Y-49361D02*
Y-43287D01*
X82396Y-40931D02*
Y-40931D01*
X81342Y-52771D02*
X84752Y-49361D01*
X81988Y-96161D02*
X82087D01*
X79362Y-93633D02*
X79460D01*
X81988Y-96161D01*
X64828Y-91861D02*
X65833Y-90856D01*
X64828Y-92948D02*
Y-91861D01*
X64567Y-93209D02*
X64828Y-92948D01*
X65833Y-90856D02*
Y-90171D01*
X72631Y-80969D02*
X72642D01*
X74416Y-81283D02*
X74730Y-80969D01*
X71598Y-82002D02*
X72631Y-80969D01*
X72642D02*
X72956Y-81283D01*
X74416D01*
X74730Y-80969D02*
X74741D01*
X75774Y-82002D01*
X70565Y-85439D02*
Y-83034D01*
X71598Y-82002D01*
X68616Y-87388D02*
X70565Y-85439D01*
X46476Y-23228D02*
X46526Y-23179D01*
X51821D02*
X51870Y-23130D01*
X32453Y-25622D02*
X33450Y-26619D01*
X36245D01*
X32091Y-25984D02*
X32453Y-25622D01*
X28598Y-25984D02*
X32091D01*
X28508Y-26075D02*
X28598Y-25984D01*
X36245Y-26619D02*
X36595Y-26969D01*
X32453Y-25622D02*
Y-23064D01*
X31617Y-22228D02*
X32453Y-23064D01*
X28598Y-20079D02*
X36004D01*
X28417Y-20260D02*
X28598Y-20079D01*
X36004D02*
X36595Y-19488D01*
X24563Y-21096D02*
X25399Y-20260D01*
X24563Y-23180D02*
Y-21096D01*
Y-23180D02*
X25399Y-24016D01*
X28417D01*
X25399Y-20260D02*
X28417D01*
Y-24016D02*
X28508Y-24106D01*
Y-22138D02*
X28598Y-22228D01*
X31617D01*
X49114Y-79921D02*
X52725Y-76310D01*
X49114Y-84781D02*
Y-79921D01*
Y-84781D02*
X49834Y-85501D01*
X50298Y-85965D01*
Y-88713D02*
Y-85965D01*
X49834Y-89177D02*
X50298Y-88713D01*
X49834Y-90213D02*
Y-89177D01*
Y-90213D02*
X50824Y-91203D01*
D16*
X177825Y-60800D02*
D03*
X177850Y-57000D02*
D03*
D17*
X180975Y-60800D02*
D03*
X181000Y-57000D02*
D03*
D18*
X32677Y-66142D02*
D03*
X28740D02*
D03*
X28839Y-48130D02*
D03*
X32776D02*
D03*
D19*
X28508Y-35917D02*
D03*
Y-32768D02*
D03*
Y-13476D02*
D03*
Y-10327D02*
D03*
D20*
Y-30012D02*
D03*
Y-28043D02*
D03*
Y-26075D02*
D03*
Y-24106D02*
D03*
Y-16232D02*
D03*
Y-18201D02*
D03*
Y-20169D02*
D03*
Y-22138D02*
D03*
D21*
X37750Y-34646D02*
D03*
Y-12106D02*
D03*
X15748Y-74803D02*
D03*
Y-62598D02*
D03*
D22*
X37750Y-37795D02*
D03*
Y-8957D02*
D03*
X15748Y-77953D02*
D03*
Y-65748D02*
D03*
D23*
X37863Y-68965D02*
D03*
X77135Y-91406D02*
D03*
X93768Y-54005D02*
D03*
X65785Y-36356D02*
D03*
X97213Y-74871D02*
D03*
X65256Y-41339D02*
D03*
X60464Y-46783D02*
D03*
X93670Y-78414D02*
D03*
D24*
X40090Y-71192D02*
D03*
X79362Y-93633D02*
D03*
X95995Y-56232D02*
D03*
X68012Y-38583D02*
D03*
X99440Y-77098D02*
D03*
X63029Y-39112D02*
D03*
X58237Y-44556D02*
D03*
X95897Y-80641D02*
D03*
D25*
X75774Y-82002D02*
D03*
X77166Y-80610D02*
D03*
X78558Y-79218D02*
D03*
X79950Y-77826D02*
D03*
X81342Y-76434D02*
D03*
X82734Y-75042D02*
D03*
X84126Y-73650D02*
D03*
X85518Y-72258D02*
D03*
X86910Y-70866D02*
D03*
X88301Y-69474D02*
D03*
X89693Y-68082D02*
D03*
X91085Y-66690D02*
D03*
X71598Y-47203D02*
D03*
X70206Y-48595D02*
D03*
X68814Y-49987D02*
D03*
X67422Y-51379D02*
D03*
X66030Y-52771D02*
D03*
X64638Y-54163D02*
D03*
X63246Y-55555D02*
D03*
X61854Y-56947D02*
D03*
X60462Y-58339D02*
D03*
X59071Y-59731D02*
D03*
X57679Y-61123D02*
D03*
X56287Y-62515D02*
D03*
D26*
X91085D02*
D03*
X89693Y-61123D02*
D03*
X88301Y-59731D02*
D03*
X86910Y-58339D02*
D03*
X85518Y-56947D02*
D03*
X84126Y-55555D02*
D03*
X82734Y-54163D02*
D03*
X81342Y-52771D02*
D03*
X79950Y-51379D02*
D03*
X78558Y-49987D02*
D03*
X77166Y-48595D02*
D03*
X75774Y-47203D02*
D03*
X56287Y-66690D02*
D03*
X57679Y-68082D02*
D03*
X59071Y-69474D02*
D03*
X60462Y-70866D02*
D03*
X61854Y-72258D02*
D03*
X63246Y-73650D02*
D03*
X64638Y-75042D02*
D03*
X66030Y-76434D02*
D03*
X67422Y-77826D02*
D03*
X68814Y-79218D02*
D03*
X70206Y-80610D02*
D03*
X71598Y-82002D02*
D03*
D27*
X73686Y-64602D02*
D03*
D28*
X38268Y-26969D02*
D03*
Y-23228D02*
D03*
Y-19488D02*
D03*
X48150D02*
D03*
Y-23228D02*
D03*
Y-26969D02*
D03*
D29*
X47607Y-87728D02*
D03*
X52725Y-76310D02*
D03*
X53051Y-88976D02*
D03*
X96291Y-69359D02*
D03*
X59283Y-79201D02*
D03*
D30*
X49834Y-85501D02*
D03*
X54952Y-74083D02*
D03*
X50824Y-91203D02*
D03*
X94064Y-71586D02*
D03*
X57056Y-81428D02*
D03*
D31*
X79612Y-43715D02*
D03*
X82396Y-40931D02*
D03*
X68616Y-87388D02*
D03*
X65833Y-90171D02*
D03*
X91423Y-98833D02*
D03*
X94207Y-96049D02*
D03*
X99128Y-91128D02*
D03*
X96344Y-93912D02*
D03*
X87486Y-78164D02*
D03*
X90270Y-75380D02*
D03*
X49325Y-61994D02*
D03*
X46541Y-64778D02*
D03*
D32*
X40099Y-83634D02*
D03*
X49114Y-79921D02*
D03*
X43811Y-74618D02*
D03*
D33*
X7874Y-76772D02*
D03*
Y-88583D02*
D03*
Y-52756D02*
D03*
Y-64567D02*
D03*
D34*
X91522Y-85938D02*
D03*
X86233Y-91227D02*
D03*
D65*
X31102Y-57087D02*
D03*
D66*
X25591Y-53347D02*
D03*
Y-57087D02*
D03*
Y-60827D02*
D03*
X36614D02*
D03*
Y-57087D02*
D03*
Y-53347D02*
D03*
D67*
X32480Y-69488D02*
Y-66339D01*
X32677Y-66142D01*
X31024Y-70945D02*
X32480Y-69488D01*
X32677Y-66142D02*
X36516Y-62303D01*
Y-60925D01*
X36614Y-60827D02*
Y-57087D01*
X36516Y-60925D02*
X36614Y-60827D01*
X31024Y-88583D02*
Y-70945D01*
X108514Y-73868D02*
X110177Y-72205D01*
X102165Y-80216D02*
X108514Y-73868D01*
X104921Y-70276D02*
X108514Y-73868D01*
X110177Y-72205D02*
X179134D01*
X31024Y-88583D02*
X31024D01*
X102165Y-98524D02*
Y-80216D01*
X96555Y-104134D02*
X102165Y-98524D01*
X81988Y-104134D02*
X96555D01*
X74213Y-96358D02*
X81988Y-104134D01*
X52581Y-96358D02*
X74213D01*
X31024Y-88583D02*
Y-88583D01*
Y-110236D02*
Y-88583D01*
Y-88583D02*
X36220D01*
X43996Y-96358D01*
X31024Y-88583D02*
X31024Y-88583D01*
X7874Y-88583D02*
X31024D01*
X43996Y-96358D02*
X52581D01*
X61551Y-87388D01*
X68616D01*
D68*
X43799Y-42618D02*
Y-22842D01*
X38287Y-48130D02*
X43799Y-42618D01*
X43480Y-23160D02*
X43799Y-22842D01*
X32776Y-48130D02*
X38287D01*
X32776Y-51279D02*
Y-48130D01*
X32677Y-51378D02*
X32776Y-51279D01*
X38336Y-23160D02*
X43480D01*
X43799Y-22841D02*
Y-5118D01*
X41154Y-2472D02*
X43799Y-5118D01*
X20437Y-2472D02*
X41154D01*
X38268Y-23228D02*
X38336Y-23160D01*
X19197Y-3712D02*
X20437Y-2472D01*
X19197Y-12298D02*
Y-3712D01*
Y-12298D02*
X22488Y-15589D01*
Y-16580D02*
Y-15589D01*
X28311Y-13673D02*
X28508Y-13476D01*
X25395Y-13673D02*
X28311D01*
X22488Y-16580D02*
X25395Y-13673D01*
X22488Y-29664D02*
Y-16580D01*
X25395Y-32571D02*
X28311D01*
X28508Y-32768D01*
X22488Y-29664D02*
X25395Y-32571D01*
D69*
X26835Y-39312D02*
Y-35917D01*
X34744Y-39173D02*
X37750D01*
X31488Y-35917D02*
X34744Y-39173D01*
X33169Y-7579D02*
X37750D01*
X28508Y-10327D02*
X30421D01*
X26835D02*
X28508D01*
X26835D02*
Y-6933D01*
X30421Y-10327D02*
X33169Y-7579D01*
X24905Y-6114D02*
X26016D01*
X26835Y-6933D01*
X26016Y-40130D02*
X26835Y-39312D01*
Y-35917D02*
X28508D01*
X31488D01*
D70*
X23130Y-60020D02*
Y-54154D01*
Y-60020D02*
X23937Y-60827D01*
X25591D01*
X23937Y-53347D02*
X26083D01*
X23130Y-54154D02*
X23937Y-53347D01*
X35315Y-51673D02*
X36122Y-52480D01*
X26083Y-52677D02*
X27087Y-51673D01*
X36122Y-53347D02*
Y-52480D01*
X26083Y-53347D02*
Y-52677D01*
X27087Y-51673D02*
X35315D01*
X36122Y-53347D02*
X36614D01*
D71*
X37834Y-68502D02*
X38219D01*
X39372D01*
X37764Y-68572D02*
X37834Y-68502D01*
X39372D02*
X54999Y-52875D01*
D72*
X95276Y-94980D02*
X97539Y-97244D01*
X53051Y-88976D02*
X56250Y-85778D01*
X57056Y-81428D02*
X57125Y-81498D01*
Y-84878D02*
Y-81498D01*
X56398Y-85606D02*
X57125Y-84878D01*
X56398Y-85925D02*
Y-85606D01*
X95276Y-94980D02*
X96344Y-93912D01*
X94207Y-96049D02*
X95276Y-94980D01*
X94207Y-96049D02*
X94207D01*
D73*
X70900Y-16600D02*
D03*
X138100Y-102000D02*
D03*
D74*
X179134Y-92205D02*
D03*
Y-72205D02*
D03*
Y-82205D02*
D03*
Y-102205D02*
D03*
X202362Y-58661D02*
D03*
X212362D02*
D03*
X31024Y-110236D02*
D03*
X41024D02*
D03*
X51024D02*
D03*
X61024D02*
D03*
D75*
X179134Y-112205D02*
D03*
D76*
X192362Y-58661D02*
D03*
X71024Y-110236D02*
D03*
D77*
X22819Y-34500D02*
D03*
Y-11744D02*
D03*
D78*
X8449Y-40130D02*
D03*
Y-6114D02*
D03*
X24905Y-40130D02*
D03*
Y-6114D02*
D03*
D79*
X62042Y-16600D02*
D03*
X79758D02*
D03*
X70900Y-7742D02*
D03*
Y-26443D02*
D03*
X77790Y-9710D02*
D03*
X64010D02*
D03*
Y-23490D02*
D03*
X77790Y-23490D02*
D03*
X129242Y-102000D02*
D03*
X146958D02*
D03*
X138100Y-93142D02*
D03*
Y-111843D02*
D03*
X144990Y-95110D02*
D03*
X131210D02*
D03*
Y-108890D02*
D03*
X144990Y-108890D02*
D03*
D80*
X121653Y-64724D02*
D03*
X117717Y-64961D02*
D03*
X105512Y-65354D02*
D03*
X100689Y-70866D02*
D03*
X32874Y-55315D02*
D03*
X29331D02*
D03*
X32874Y-58957D02*
D03*
X29331D02*
D03*
X55118Y-57874D02*
D03*
X44390Y-67716D02*
D03*
X109744Y-57972D02*
D03*
X113976Y-57874D02*
D03*
X105610Y-57834D02*
D03*
X104921Y-70276D02*
D03*
X67618Y-43898D02*
D03*
X75492Y-43309D02*
D03*
X63163Y-50075D02*
D03*
X51083Y-69291D02*
D03*
X56398Y-85925D02*
D03*
X82087Y-96161D02*
D03*
X64567Y-93209D02*
D03*
X97539Y-97244D02*
D03*
X51821Y-23179D02*
D03*
X82284Y-46358D02*
D03*
X18898Y-58268D02*
D03*
D81*
X73686Y-76851D02*
D03*
X70624Y-73789D02*
D03*
X67562Y-70727D02*
D03*
X64499Y-67665D02*
D03*
X61437Y-64602D02*
D03*
X76748Y-73789D02*
D03*
X73686Y-70727D02*
D03*
X70624Y-67665D02*
D03*
X67562Y-64602D02*
D03*
X64499Y-61540D02*
D03*
X79811Y-70727D02*
D03*
X76748Y-67665D02*
D03*
X73686Y-64602D02*
D03*
X70624Y-61540D02*
D03*
X67562Y-58478D02*
D03*
X82873Y-67665D02*
D03*
X79811Y-64602D02*
D03*
X76748Y-61540D02*
D03*
X73686Y-58478D02*
D03*
X70624Y-55416D02*
D03*
X85935Y-64602D02*
D03*
X82873Y-61540D02*
D03*
X79811Y-58478D02*
D03*
X76748Y-55416D02*
D03*
X73686Y-52353D02*
D03*
M02*
